<?xml version="1.0" encoding="utf-8"?>
<!-- Generator: Adobe Illustrator 16.0.0, SVG Export Plug-In . SVG Version: 6.00 Build 0)  -->
<!DOCTYPE svg PUBLIC "-//W3C//DTD SVG 1.1//EN" "http://www.w3.org/Graphics/SVG/1.1/DTD/svg11.dtd">
<svg version="1.1" id="Layer_1" xmlns="http://www.w3.org/2000/svg" xmlns:xlink="http://www.w3.org/1999/xlink" x="0px" y="0px"
	 width="82px" height="33px" viewBox="0 0 82 33" enable-background="new 0 0 82 33" xml:space="preserve">
<g>
	<path fill="#211F1F" d="M40.746,11.967c-0.187,0.306-0.423,0.407-0.66,0.407c-0.22,0-0.457-0.102-0.609-0.407l-2.268-4.312v8.251
		c0,0.391-0.44,0.595-0.896,0.595c-0.44,0-0.897-0.204-0.897-0.595V4.989c0-0.662,0.44-0.9,0.897-0.9
		c0.643,0,0.999,0.221,1.421,1.019l2.369,4.5l2.403-4.5c0.424-0.798,0.761-1.019,1.404-1.019c0.474,0,0.896,0.238,0.896,0.9v10.916
		c0,0.391-0.439,0.595-0.896,0.595c-0.439,0-0.897-0.204-0.897-0.595V7.756L40.746,11.967z"/>
	<path fill="#211F1F" d="M46.161,15.753c0-0.052,0-0.103,0.017-0.153l3.366-11.001c0.137-0.407,0.627-0.611,1.135-0.611
		s1.015,0.204,1.151,0.611L55.181,15.6c0.017,0.051,0.032,0.102,0.032,0.153c0,0.424-0.624,0.747-1.134,0.747
		c-0.287,0-0.523-0.103-0.608-0.374l-0.693-2.411h-4.18l-0.694,2.411c-0.085,0.271-0.321,0.374-0.626,0.374
		C46.787,16.5,46.161,16.193,46.161,15.753z M52.371,12.272l-1.692-5.823l-1.692,5.823H52.371z"/>
	<path fill="#211F1F" d="M62.389,15.838l-4.045-7.726v7.793c0,0.391-0.44,0.595-0.896,0.595c-0.44,0-0.896-0.204-0.896-0.595V4.684
		c0-0.425,0.44-0.595,0.896-0.595c0.644,0,0.947,0.238,1.354,1.019l3.757,7.352V4.666c0-0.407,0.456-0.577,0.896-0.577
		c0.457,0,0.897,0.17,0.897,0.577v11.239c0,0.391-0.44,0.595-0.897,0.595C63.014,16.5,62.625,16.279,62.389,15.838z"/>
	<path fill="#211F1F" d="M73.32,4.089c0.406,0,0.592,0.407,0.592,0.798c0,0.441-0.202,0.85-0.592,0.85h-2.606v10.169
		c0,0.391-0.457,0.595-0.896,0.595c-0.458,0-0.897-0.204-0.897-0.595V5.736h-2.623c-0.372,0-0.593-0.391-0.593-0.832
		c0-0.391,0.188-0.815,0.593-0.815H73.32z"/>
	<path fill="#211F1F" d="M76.062,16.5c-0.39,0-0.797-0.204-0.797-0.595V4.666c0-0.407,0.458-0.577,0.897-0.577
		c0.457,0,0.896,0.17,0.896,0.577v10.237h4.4c0.355,0,0.541,0.391,0.541,0.798c0,0.391-0.186,0.799-0.541,0.799H76.062z"/>
	<ellipse fill="#211F1F" cx="16.446" cy="16.5" rx="16.446" ry="16.5"/>
	<path fill="#E9233A" d="M30.869,16.5h-2.55c0-3.182-1.235-6.174-3.478-8.423c-2.243-2.25-5.224-3.489-8.396-3.489V2.03
		c1.947,0,3.835,0.383,5.615,1.138c1.717,0.729,3.26,1.771,4.583,3.1c1.324,1.329,2.364,2.876,3.09,4.6
		C30.487,12.651,30.869,14.547,30.869,16.5z"/>
	<path fill="#EE5228" d="M26.725,16.5h-2.549c0-2.071-0.804-4.02-2.264-5.483c-1.46-1.465-3.401-2.271-5.466-2.271V6.188
		c1.387,0,2.733,0.272,4.001,0.811c1.225,0.52,2.324,1.263,3.267,2.209c0.943,0.947,1.685,2.05,2.203,3.278
		C26.454,13.757,26.725,15.107,26.725,16.5z"/>
	<path fill="#F59422" d="M22.582,16.5h-2.55c0-1.984-1.609-3.598-3.586-3.598v-2.559C19.83,10.344,22.582,13.105,22.582,16.5z"/>
	<path fill="#FADE00" d="M18.439,16.5h-1.993v-1.999C17.545,14.501,18.439,15.397,18.439,16.5z"/>
</g>
</svg>
