<?xml version="1.0" encoding="utf-8"?>
<!-- Generator: Adobe Illustrator 16.0.0, SVG Export Plug-In . SVG Version: 6.00 Build 0)  -->
<!DOCTYPE svg PUBLIC "-//W3C//DTD SVG 1.1//EN" "http://www.w3.org/Graphics/SVG/1.1/DTD/svg11.dtd">
<svg version="1.1" id="Layer_1" xmlns="http://www.w3.org/2000/svg" xmlns:xlink="http://www.w3.org/1999/xlink" x="0px" y="0px"
	 width="50px" height="50px" viewBox="0 0 50 50" enable-background="new 0 0 50 50" xml:space="preserve">
<g>
	<g>
		<circle fill="#211F1F" cx="25" cy="25" r="12.5"/>
		<g>
			<path fill="#E8233A" d="M35.961,25h-1.938c0-2.41-0.939-4.676-2.643-6.381c-1.705-1.704-3.971-2.643-6.38-2.643v-1.938
				c1.478,0,2.914,0.29,4.267,0.862c1.305,0.552,2.477,1.343,3.482,2.349c1.008,1.006,1.797,2.179,2.35,3.484
				C35.672,22.085,35.961,23.521,35.961,25z"/>
		</g>
		<g>
			<path fill="#EC5328" d="M32.812,25h-1.938c0-1.569-0.611-3.044-1.721-4.154S26.568,19.125,25,19.125v-1.938
				c1.054,0,2.076,0.207,3.041,0.614c0.93,0.394,1.766,0.957,2.482,1.674c0.717,0.717,1.281,1.553,1.674,2.483
				C32.605,22.922,32.812,23.946,32.812,25z"/>
		</g>
		<g>
			<path fill="#F49423" d="M29.662,25h-1.938c0-1.503-1.223-2.725-2.724-2.725v-1.938C27.57,20.337,29.662,22.429,29.662,25z"/>
		</g>
		<g>
			<path fill="#F8DC02" d="M26.514,25H25v-1.514C25.834,23.486,26.514,24.165,26.514,25z"/>
		</g>
	</g>
</g>
</svg>
