<?xml version="1.0" encoding="utf-8"?>
<!-- Generator: Adobe Illustrator 19.2.1, SVG Export Plug-In . SVG Version: 6.00 Build 0)  -->
<svg version="1.1" id="Layer_1" xmlns="http://www.w3.org/2000/svg" xmlns:xlink="http://www.w3.org/1999/xlink" x="0px" y="0px"
	 viewBox="0 0 485.2 170" style="enable-background:new 0 0 485.2 170;" xml:space="preserve">
<style type="text/css">
	.st0{fill:#FF9510;}
	.st1{fill:#FFFFFF;}
	.st2{fill:#211F1F;}
</style>
<g>
	<g id="XMLID_7_">
		<g>
			<polygon class="st0" points="229.4,122.9 243.6,130 229.5,137.6 215.1,130.4 			"/>
			<path class="st1" d="M213.7,102.8v21.3l-6.9,3.6c0,0-0.1,0-0.1,0.1s-0.1,0-0.1,0c-0.1,0.1-0.2,0.2-0.3,0.3
				c-0.1,0.1-0.2,0.1-0.3,0.2c-0.1,0.1-0.2,0.3-0.3,0.4c-0.1,0.1-0.1,0.2-0.2,0.3c-0.1,0.2-0.2,0.4-0.2,0.5c0,0.1-0.1,0.1-0.1,0.2
				c-0.1,0.3-0.1,0.5-0.1,0.8v16.8l-25.4,13.5v-40L213.7,102.8z"/>
			<polygon class="st1" points="53.2,102.4 53.2,126.1 33.1,136.8 33.1,113 			"/>
			<polygon class="st0" points="471.9,72.3 460.4,78.8 434.4,75 445.8,68.1 			"/>
			<path class="st0" d="M44.5,44.9l21.3,10.6c0.4,0.2,0.9,0.3,1.4,0.3c0.5,0,1-0.1,1.5-0.4l20.9-11.1c1-0.5,1.7-1.6,1.7-2.8v-1
				l13.6,6.8L67.3,67.3l-38.1-19l13.5-7.1v0.9C42.7,43.3,43.4,44.4,44.5,44.9z"/>
			<polygon class="st0" points="457.8,84.8 457.8,163 428.9,156.7 428.5,156.6 428.5,80.4 			"/>
			<path class="st1" d="M210,97.7l-33.4,17.8l-10-4.9l27.6-14.7c1-0.5,1.7-1.6,1.7-2.8v-2.4L210,97.7z"/>
			<polygon class="st1" points="174,34.8 174,59.4 152.8,48.9 152.8,24.3 			"/>
			<path class="st2" d="M485.2,156.6c0,1.2-0.7,2.3-1.8,2.9l-21.1,10.2c0,0-0.1,0-0.1,0c-0.2,0.1-0.3,0.1-0.5,0.2
				c-0.1,0-0.1,0-0.2,0c-0.2,0-0.4,0.1-0.6,0.1c-0.2,0-0.4,0-0.7-0.1l-35.6-7.7c0,0,0,0,0,0h0l-37.4-8.8c-1.4-0.3-2.4-1.6-2.4-3.1
				V14c0-0.1,0-0.2,0-0.3c0-0.1,0-0.2,0-0.2c0-0.3,0.1-0.6,0.2-0.8c0,0,0-0.1,0.1-0.1c0.1-0.2,0.3-0.4,0.4-0.6
				c0-0.1,0.1-0.1,0.2-0.2c0-0.1,0.1-0.1,0.1-0.2c0.2-0.1,0.3-0.2,0.5-0.3c0,0,0,0,0.1,0l19.9-10.9c0.6-0.3,1.3-0.5,2-0.3L446,6
				c0,0,0.1,0,0.1,0c0.2,0,0.4,0.1,0.6,0.2c0.1,0,0.2,0.1,0.3,0.1c0,0,0.1,0,0.1,0c0.2,0.1,0.3,0.2,0.5,0.4c0,0,0.1,0.1,0.2,0.1
				c0.2,0.2,0.4,0.5,0.5,0.7c0,0.1,0.1,0.1,0.1,0.2c0.1,0.2,0.2,0.4,0.2,0.6c0,0,0,0.1,0,0.1c0,0.1,0,0.1,0,0.2c0,0.1,0,0.2,0,0.3
				v53.2l33.2,5.3c0,0,0.1,0,0.1,0c0.2,0,0.4,0.1,0.6,0.2c0.1,0,0.2,0.1,0.3,0.1c0,0,0,0,0.1,0c0.2,0.1,0.4,0.3,0.5,0.4
				c0,0,0.1,0,0.1,0.1c0.2,0.2,0.4,0.5,0.5,0.7c0,0.1,0.1,0.2,0.1,0.3c0.1,0.2,0.2,0.4,0.2,0.6c0,0,0,0.1,0,0.1c0,0.1,0,0.1,0,0.2
				c0,0.1,0,0.2,0,0.3L485.2,156.6z M479,154.7L478.2,76l-14.1,8v78L479,154.7z M460.4,78.8l11.6-6.5l-26.2-4.2L434.4,75L460.4,78.8
				z M457.8,163V84.8l-29.4-4.4v76.2l0.4,0.1L457.8,163z M442.3,62.9V14.4L428.5,22v49.3L442.3,62.9z M433,12.4l3-1.6l-27.5-4.3
				l-10.9,6l27.3,4.4L433,12.4z M422.2,155.2V76.8v-54l-31.1-5.1v130.2L422.2,155.2z"/>
			<polygon class="st1" points="189.6,91.1 165.2,104.1 165.2,75.3 189.6,62.4 			"/>
			<polygon class="st1" points="173.5,120.9 173.5,161 138.8,143.7 138.8,103.7 			"/>
			<polygon class="st0" points="226.4,143 226.4,160.5 211.4,153.1 211.4,135.6 			"/>
			<polygon class="st1" points="197.2,18.6 177.1,29.4 156.5,19.2 176.9,8.4 			"/>
			<polygon class="st0" points="85,22.3 85,39.7 70.3,47.5 70.3,30.1 			"/>
			<polygon class="st1" points="26.9,113.1 26.9,137 6.3,126.8 6.3,102.9 			"/>
			<polygon class="st0" points="64,47.7 49,40.2 49,22.7 64,30.2 			"/>
			<polygon class="st1" points="435.9,10.7 433,12.4 424.8,16.8 397.5,12.4 408.4,6.4 			"/>
			<polygon class="st0" points="108.5,52.5 108.5,97.3 70.5,117.5 70.5,72.7 			"/>
			<polygon class="st1" points="49.6,97.2 30,107.6 10,97.7 29.8,87.3 			"/>
			<polygon class="st0" points="81.3,17.2 67.1,24.7 52.7,17.6 67,10 			"/>
			<polygon class="st1" points="134.1,91.9 134.1,63 159,75.4 159,104.2 			"/>
			<path class="st0" d="M59.5,115.3V97.1c0,0,0,0,0,0c0,0,0,0,0,0c0-0.1,0-0.1,0-0.2c0-0.2,0-0.4-0.1-0.6c0-0.1-0.1-0.2-0.1-0.3
				c-0.1-0.2-0.1-0.3-0.2-0.5c-0.1-0.1-0.1-0.2-0.2-0.3c-0.1-0.1-0.2-0.3-0.3-0.4c-0.1-0.1-0.2-0.1-0.3-0.2
				c-0.1-0.1-0.2-0.2-0.3-0.2c0,0-0.1,0-0.1,0c0,0,0,0-0.1-0.1L31.2,81c-0.9-0.5-2-0.4-2.9,0l-2.8,1.5v-29l38.8,19.3v44.8
				L59.5,115.3z"/>
			<polygon class="st0" points="478.2,76 479,154.7 464.1,161.9 464.1,83.9 			"/>
			<path class="st2" d="M165.2,104.1l24.4-13V62.4l-24.4,13V104.1z M215.1,130.4l14.4,7.1l14.1-7.5l-14.2-7.1L215.1,130.4z
				 M247.3,135.2l-14.6,7.8v17.4l14.6-7.8V135.2z M127.8,93.8V57.9c0-0.3,0-0.5,0.1-0.8c0-0.1,0-0.1,0.1-0.2
				c0.1-0.2,0.1-0.4,0.3-0.6c0-0.1,0.1-0.2,0.2-0.3c0.1-0.1,0.2-0.3,0.3-0.4c0.1-0.1,0.2-0.1,0.3-0.2c0.1-0.1,0.2-0.2,0.3-0.2
				c0,0,0.1,0,0.1,0c0,0,0.1,0,0.1-0.1l17.1-9V19.2c0-0.3,0-0.5,0.1-0.8c0-0.1,0.1-0.1,0.1-0.2c0.1-0.2,0.1-0.4,0.3-0.6
				c0-0.1,0.1-0.2,0.2-0.2c0.1-0.1,0.2-0.3,0.3-0.4c0.1-0.1,0.2-0.1,0.3-0.2c0.1-0.1,0.2-0.2,0.3-0.2c0,0,0.1,0,0.1,0s0,0,0.1-0.1
				l27.2-14.3c0.9-0.5,2-0.5,2.9,0l27.2,13.6c0,0,0.1,0,0.1,0.1c0,0,0.1,0,0.1,0c0.1,0.1,0.2,0.1,0.3,0.2c0.1,0.1,0.2,0.1,0.3,0.2
				c0.1,0.1,0.2,0.3,0.3,0.4c0.1,0.1,0.2,0.2,0.2,0.3c0.1,0.1,0.2,0.3,0.2,0.5c0,0.1,0.1,0.2,0.1,0.3c0.1,0.2,0.1,0.4,0.1,0.6
				c0,0.1,0,0.2,0,0.2v0c0,0,0,0,0,0v31.6c0,1.2-0.6,2.2-1.7,2.8l-9.7,5.1v25.6l22.3,11.2c0,0,0.1,0,0.1,0.1c0,0,0.1,0,0.1,0
				c0.1,0.1,0.2,0.2,0.3,0.2c0.1,0.1,0.2,0.1,0.3,0.2c0.1,0.1,0.2,0.2,0.3,0.4c0.1,0.1,0.1,0.2,0.2,0.3c0.1,0.1,0.1,0.3,0.2,0.5
				c0,0.1,0.1,0.2,0.1,0.3c0,0.2,0.1,0.4,0.1,0.6c0,0.1,0,0.1,0,0.2c0,0,0,0,0,0c0,0,0,0,0,0v23.2l7.9-4.2c0.9-0.5,2-0.5,2.9,0
				l21.1,10.6c0,0,0.1,0,0.1,0.1c0,0,0.1,0,0.1,0c0.1,0.1,0.2,0.1,0.3,0.2s0.2,0.1,0.3,0.2c0.1,0.1,0.2,0.2,0.3,0.4
				c0.1,0.1,0.1,0.2,0.2,0.3c0.1,0.1,0.1,0.3,0.2,0.5c0,0.1,0.1,0.2,0.1,0.3c0,0.2,0.1,0.4,0.1,0.6c0,0.1,0,0.2,0,0.2l0,0
				c0,0,0,0,0,0v24.5c0,1.2-0.6,2.2-1.7,2.8L231,168.3c-0.5,0.3-1,0.4-1.5,0.4c-0.5,0-1-0.1-1.4-0.3l-21.3-10.6
				c-1.1-0.5-1.7-1.6-1.7-2.8v-0.6l-27,14.4c-0.5,0.3-1,0.4-1.5,0.4c-0.5,0-1-0.1-1.4-0.3l-41-20.4c-1.1-0.5-1.7-1.6-1.7-2.8V98.6
				c0-0.2,0-0.3,0.1-0.5l-3.1-1.5C128.5,96.1,127.8,95,127.8,93.8z M134.1,63v28.9l24.9,12.4V75.4L134.1,63z M226.4,160.5V143
				l-15-7.5v17.5L226.4,160.5z M213.7,124.1v-21.3l-33.9,18v40l25.4-13.5v-16.8c0-0.3,0-0.5,0.1-0.8c0-0.1,0-0.1,0.1-0.2
				c0.1-0.2,0.1-0.4,0.2-0.5c0-0.1,0.1-0.2,0.2-0.3c0.1-0.1,0.2-0.3,0.3-0.4c0.1-0.1,0.2-0.1,0.3-0.2c0.1-0.1,0.2-0.2,0.3-0.3
				c0,0,0.1,0,0.1,0s0.1,0,0.1-0.1L213.7,124.1z M176.6,115.4L210,97.7l-14.1-7.1V93c0,1.2-0.6,2.2-1.7,2.8l-27.6,14.7L176.6,115.4z
				 M200.9,48.2V23.8l-20.7,11v24.5L200.9,48.2z M177.1,29.4l20.2-10.7L176.9,8.4l-20.3,10.7L177.1,29.4z M174,59.4V34.8l-21.2-10.5
				v24.6L174,59.4z M173.5,161v-40.1l-34.7-17.2v40.1L173.5,161z M162.1,69.9l9.2-4.9l-23-11.4c-0.4-0.2-0.7-0.5-1-0.8l-9.5,5
				L162.1,69.9z"/>
			<polygon class="st1" points="442.3,14.4 442.3,62.9 428.5,71.2 428.5,22 			"/>
			<polygon class="st0" points="232.7,143 247.3,135.2 247.3,152.6 232.7,160.4 			"/>
			<polygon class="st1" points="422.2,76.8 422.2,155.2 391.1,147.9 391.1,17.7 422.2,22.8 			"/>
			<path class="st1" d="M171.3,65l-9.2,4.9l-24.3-12.1l9.5-5c0.3,0.3,0.6,0.6,1,0.8L171.3,65z"/>
			<path class="st2" d="M49,22.7v17.5l15,7.5V30.2L49,22.7z M31.2,81l26.6,13.4c0,0,0.1,0,0.1,0.1c0,0,0.1,0,0.1,0
				c0.1,0.1,0.2,0.2,0.3,0.2c0.1,0.1,0.2,0.1,0.3,0.2c0.1,0.1,0.2,0.3,0.3,0.4c0.1,0.1,0.1,0.2,0.2,0.3c0.1,0.2,0.1,0.3,0.2,0.5
				c0,0.1,0.1,0.2,0.1,0.3c0,0.2,0.1,0.4,0.1,0.6c0,0.1,0,0.1,0,0.2c0,0,0,0,0,0c0,0,0,0,0,0v18.1l4.7,2.3V72.8L25.5,53.5v29
				l2.8-1.5C29.2,80.5,30.3,80.5,31.2,81z M33.1,113v23.8l20.1-10.7v-23.8L33.1,113z M30,107.6l19.6-10.4l-19.8-9.9L10,97.7
				L30,107.6z M29.2,48.4l38.1,19l37.5-19.9l-13.6-6.8v1c0,1.2-0.6,2.2-1.7,2.8L68.6,55.5c-0.5,0.2-1,0.4-1.5,0.4
				c-0.5,0-1-0.1-1.4-0.3L44.5,44.9c-1.1-0.5-1.7-1.6-1.7-2.8v-0.9L29.2,48.4z M26.9,113.1L6.3,102.9v23.9L26.9,137V113.1z M1.7,95
				l17.5-9.2V48.5c0-0.3,0-0.5,0.1-0.8c0-0.1,0.1-0.1,0.1-0.2c0.1-0.2,0.1-0.4,0.2-0.6c0-0.1,0.1-0.2,0.2-0.3
				c0.1-0.1,0.2-0.3,0.3-0.4c0.1-0.1,0.2-0.1,0.3-0.2c0.1-0.1,0.2-0.2,0.3-0.2c0,0,0.1,0,0.1,0c0,0,0,0,0.1-0.1l21.9-11.5V17.6
				c0-0.3,0-0.5,0.1-0.8c0-0.1,0.1-0.1,0.1-0.2c0.1-0.2,0.1-0.4,0.2-0.6c0.1-0.1,0.1-0.2,0.2-0.2c0.1-0.1,0.2-0.3,0.3-0.4
				c0.1-0.1,0.2-0.1,0.3-0.2c0.1-0.1,0.2-0.2,0.3-0.2c0,0,0.1,0,0.1,0c0,0,0,0,0.1-0.1L65.5,3.8c0.9-0.5,2-0.5,2.9,0l21.1,10.6
				c0,0,0.1,0,0.1,0.1c0,0,0.1,0,0.1,0.1c0.1,0.1,0.2,0.1,0.3,0.2c0.1,0.1,0.2,0.1,0.3,0.2c0.1,0.1,0.2,0.2,0.3,0.4
				c0.1,0.1,0.2,0.2,0.2,0.3c0.1,0.1,0.1,0.3,0.2,0.5c0,0.1,0.1,0.2,0.1,0.3c0.1,0.2,0.1,0.4,0.1,0.6c0,0.1,0,0.2,0,0.2v0v0v16.5
				l21.8,10.9c0,0,0.1,0,0.1,0.1c0,0,0.1,0,0.1,0c0.1,0.1,0.2,0.2,0.3,0.2c0.1,0.1,0.2,0.1,0.3,0.2c0.1,0.1,0.2,0.2,0.3,0.4
				c0.1,0.1,0.2,0.2,0.2,0.3c0.1,0.1,0.2,0.3,0.2,0.5c0,0.1,0.1,0.2,0.1,0.3c0.1,0.2,0.1,0.4,0.1,0.6c0,0.1,0,0.2,0,0.2c0,0,0,0,0,0
				v0v51.8c0,1.2-0.6,2.2-1.7,2.8l-44.2,23.5c-0.5,0.2-1,0.4-1.5,0.4c-0.5,0-0.9-0.1-1.4-0.3l-6.5-3.2v5.8c0,1.2-0.6,2.2-1.7,2.8
				l-26.4,14c-0.5,0.2-1,0.4-1.5,0.4c-0.5,0-1-0.1-1.4-0.3L1.7,131.5C0.7,131,0,129.9,0,128.7V97.8c0-0.3,0-0.5,0.1-0.8
				c0-0.1,0.1-0.1,0.1-0.2c0.1-0.2,0.1-0.4,0.3-0.6c0-0.1,0.1-0.2,0.2-0.3c0.1-0.1,0.2-0.3,0.3-0.4c0.1-0.1,0.2-0.2,0.3-0.2
				c0.1-0.1,0.2-0.2,0.3-0.2C1.5,95.1,1.6,95.1,1.7,95C1.6,95.1,1.6,95.1,1.7,95z M108.5,97.3V52.5l-38,20.2v44.7L108.5,97.3z
				 M85,39.7V22.3l-14.6,7.8v17.4L85,39.7z M67.1,24.7l14.1-7.5L67,10l-14.3,7.5L67.1,24.7z"/>
			<polygon class="st1" points="200.9,23.8 200.9,48.2 180.2,59.2 180.2,34.8 			"/>
			<path class="st2" d="M343.4,85.7l-21.6,12.5v-9.4h-40.7c-1.7,0-3.1-1.4-3.1-3.1c0-1.7,1.4-3.1,3.1-3.1h40.7v-9.4L343.4,85.7z"/>
		</g>
		<g>
		</g>
	</g>
</g>
</svg>
