<?xml version="1.0" encoding="utf-8"?>
<!-- Generator: Adobe Illustrator 16.0.0, SVG Export Plug-In . SVG Version: 6.00 Build 0)  -->
<!DOCTYPE svg PUBLIC "-//W3C//DTD SVG 1.1//EN" "http://www.w3.org/Graphics/SVG/1.1/DTD/svg11.dtd">
<svg version="1.1" id="Layer_1" xmlns="http://www.w3.org/2000/svg" xmlns:xlink="http://www.w3.org/1999/xlink" x="0px" y="0px"
	 width="174px" height="60px" viewBox="0 0 174 60" enable-background="new 0 0 174 60" xml:space="preserve">
<g>
	<g>
		<g>
			<polygon fill="#FFFFFF" stroke="#221F1F" stroke-width="2.0989" stroke-linejoin="round" stroke-miterlimit="10" points="
				63.595,59.689 48.583,52.232 48.583,34.982 63.595,42.439 78.33,34.607 78.33,51.857 			"/>
			<polygon fill="#FFFFFF" stroke="#221F1F" stroke-width="2.0989" stroke-linejoin="round" stroke-miterlimit="10" points="
				63.595,42.439 48.583,34.982 63.456,27.15 78.33,34.607 			"/>
			
				<line fill="#FFFFFF" stroke="#221F1F" stroke-width="2.0989" stroke-linejoin="round" stroke-miterlimit="10" x1="63.595" y1="59.689" x2="63.595" y2="42.439"/>
		</g>
	</g>
	<g>
		<g>
			<polygon fill="#FFFFFF" stroke="#221F1F" stroke-width="2.0989" stroke-linejoin="round" stroke-miterlimit="10" points="
				58.282,38.908 46.846,33.227 46.846,20.086 58.282,25.767 69.507,19.8 69.507,32.941 			"/>
			<polygon fill="#FFFFFF" stroke="#221F1F" stroke-width="2.0989" stroke-linejoin="round" stroke-miterlimit="10" points="
				58.282,25.767 46.846,20.086 58.177,14.118 69.507,19.8 			"/>
			
				<line fill="#FFFFFF" stroke="#221F1F" stroke-width="2.0989" stroke-linejoin="round" stroke-miterlimit="10" x1="58.282" y1="38.908" x2="58.282" y2="25.767"/>
		</g>
	</g>
	<g>
		<g>
			<polygon fill="#F8941D" stroke="#211F1F" stroke-width="2.0989" stroke-linejoin="round" stroke-miterlimit="10" points="
				82.999,59.528 75.189,55.648 75.189,46.676 82.999,50.555 90.664,46.48 90.664,55.454 			"/>
			<polygon fill="#F8941D" stroke="#211F1F" stroke-width="2.0989" stroke-linejoin="round" stroke-miterlimit="10" points="
				82.999,50.555 75.189,46.676 82.927,42.602 90.664,46.48 			"/>
			
				<line fill="#F8941D" stroke="#211F1F" stroke-width="2.0989" stroke-linejoin="round" stroke-miterlimit="10" x1="82.999" y1="59.528" x2="82.999" y2="50.555"/>
		</g>
	</g>
	<g>
		<g>
			<polygon fill="#FFFFFF" stroke="#221F1F" stroke-width="2.0989" stroke-linejoin="round" stroke-miterlimit="10" points="
				63.782,22.467 53.718,17.469 53.718,5.905 63.782,10.904 73.659,5.653 73.659,17.217 			"/>
			<polygon fill="#FFFFFF" stroke="#221F1F" stroke-width="2.0989" stroke-linejoin="round" stroke-miterlimit="10" points="
				63.782,10.904 53.718,5.905 63.689,0.654 73.659,5.653 			"/>
			
				<line fill="#FFFFFF" stroke="#221F1F" stroke-width="2.0989" stroke-linejoin="round" stroke-miterlimit="10" x1="63.782" y1="22.467" x2="63.782" y2="10.904"/>
		</g>
	</g>
	<g>
		<g>
			<polygon fill="#F8941D" stroke="#211F1F" stroke-width="2.0989" stroke-linejoin="round" stroke-miterlimit="10" points="
				23.56,43.806 7.034,35.597 7.034,16.608 23.56,24.817 39.779,16.195 39.779,35.184 			"/>
			<polygon fill="#F8941D" stroke="#211F1F" stroke-width="2.0989" stroke-linejoin="round" stroke-miterlimit="10" points="
				23.56,24.817 7.034,16.608 23.407,7.986 39.779,16.195 			"/>
			
				<line fill="#F8941D" stroke="#211F1F" stroke-width="2.0989" stroke-linejoin="round" stroke-miterlimit="10" x1="23.56" y1="43.806" x2="23.56" y2="24.817"/>
		</g>
	</g>
	<g>
		<g>
			<polygon fill="#FFFFFF" stroke="#221F1F" stroke-width="2.0989" stroke-linejoin="round" stroke-miterlimit="10" points="
				9.851,50.904 0,46.012 0,34.692 9.851,39.586 19.519,34.446 19.519,45.766 			"/>
			<polygon fill="#FFFFFF" stroke="#221F1F" stroke-width="2.0989" stroke-linejoin="round" stroke-miterlimit="10" points="
				9.851,39.586 0,34.692 9.76,29.553 19.519,34.446 			"/>
			
				<line fill="#FFFFFF" stroke="#221F1F" stroke-width="2.0989" stroke-linejoin="round" stroke-miterlimit="10" x1="9.851" y1="50.904" x2="9.851" y2="39.586"/>
		</g>
	</g>
	<g>
		<g>
			<polygon fill="#FFFFFF" stroke="#221F1F" stroke-width="2.0989" stroke-linejoin="round" stroke-miterlimit="10" points="
				153.191,57.175 139.496,53.941 139.496,3.98 153.191,6.214 			"/>
			<polygon fill="#FFFFFF" stroke="#221F1F" stroke-width="2.0989" stroke-linejoin="round" stroke-miterlimit="10" points="
				153.191,6.214 160.573,2.178 160.573,53.107 153.191,57.175 			"/>
			<polygon fill="#FFFFFF" stroke="#221F1F" stroke-width="2.0989" stroke-linejoin="round" stroke-miterlimit="10" points="
				153.191,6.214 160.573,2.178 146.78,0 139.496,3.98 			"/>
		</g>
		<g>
			<polygon fill="#F8941D" stroke="#211F1F" stroke-width="2.0989" stroke-linejoin="round" stroke-miterlimit="10" points="
				153.191,26.99 166.252,28.933 166.252,60 153.191,57.175 			"/>
			<polygon fill="#F8941D" stroke="#211F1F" stroke-width="2.0989" stroke-linejoin="round" stroke-miterlimit="10" points="
				173.709,24.733 166.252,28.933 153.191,26.99 160.452,22.622 			"/>
			<polygon fill="#F8941D" stroke="#211F1F" stroke-width="2.0989" stroke-linejoin="round" stroke-miterlimit="10" points="
				166.252,28.933 166.252,60 174,56.263 173.709,24.733 			"/>
		</g>
	</g>
	<g>
		<g>
			<polygon fill="#F8941D" stroke="#211F1F" stroke-width="2.0989" stroke-linejoin="round" stroke-miterlimit="10" points="
				23.479,18.172 15.67,14.293 15.67,5.319 23.479,9.199 31.143,5.124 31.143,14.098 			"/>
			<polygon fill="#F8941D" stroke="#211F1F" stroke-width="2.0989" stroke-linejoin="round" stroke-miterlimit="10" points="
				23.479,9.199 15.67,5.319 23.407,1.245 31.143,5.124 			"/>
			
				<line fill="#F8941D" stroke="#211F1F" stroke-width="2.0989" stroke-linejoin="round" stroke-miterlimit="10" x1="23.479" y1="18.172" x2="23.479" y2="9.199"/>
		</g>
	</g>
	<g>
		<line fill="#F8941D" x1="100.299" y1="30.271" x2="123.157" y2="30.271"/>
		<g>
			
				<line fill="none" stroke="#211F1F" stroke-width="2.0989" stroke-linecap="round" stroke-linejoin="round" x1="100.299" y1="30.271" x2="117.133" y2="30.271"/>
			<g>
				<polygon fill="#211F1F" points="115.907,34.457 123.157,30.271 115.907,26.084 				"/>
			</g>
		</g>
	</g>
</g>
</svg>
