<?xml version="1.0" encoding="utf-8"?>
<!-- Generator: Adobe Illustrator 16.0.0, SVG Export Plug-In . SVG Version: 6.00 Build 0)  -->
<!DOCTYPE svg PUBLIC "-//W3C//DTD SVG 1.1//EN" "http://www.w3.org/Graphics/SVG/1.1/DTD/svg11.dtd">
<svg version="1.1" id="Layer_1" xmlns="http://www.w3.org/2000/svg" xmlns:xlink="http://www.w3.org/1999/xlink" x="0px" y="0px"
	 width="225px" height="58px" viewBox="0 0 225 58" enable-background="new 0 0 225 58" xml:space="preserve">
<g>
	<g>
		<g>
			<polygon fill="#F8941D" points="88.565,42.735 88.565,49.414 94.806,46.075 116.94,57.779 137.719,45.831 137.719,39.006 
				109.397,44.367 109.433,32.306 			"/>
			<polygon fill="#F8941D" points="118.452,27.564 137.719,27.564 137.719,20.229 115.601,13.261 110.65,10.962 97.623,17.975 
				89.443,12.659 89.443,19.598 98.574,23.962 110.855,16.726 118.027,20.797 			"/>
		</g>
		<g>
			<polygon fill="#FFFFFF" stroke="#211F1F" stroke-width="2.1863" stroke-linejoin="round" stroke-miterlimit="10" points="
				122.606,16.78 117.507,20.182 137.28,20.182 137.28,7.972 131.4,12.298 109.975,0.221 89.062,12.659 97.821,17.975 
				110.578,10.213 			"/>
			<polyline fill="none" stroke="#211F1F" stroke-width="2.1863" stroke-linejoin="round" stroke-miterlimit="10" points="
				110.541,10.294 110.746,16.928 97.781,24.301 89.005,19.598 89.005,12.798 			"/>
			
				<line fill="none" stroke="#211F1F" stroke-width="2.1863" stroke-linejoin="round" stroke-miterlimit="10" x1="97.782" y1="18.01" x2="97.782" y2="24.09"/>
			<polyline fill="none" stroke="#211F1F" stroke-width="2.1863" stroke-linejoin="round" stroke-miterlimit="10" points="
				110.43,17.087 117.092,20.229 117.092,27.131 137.28,27.131 137.28,20.615 			"/>
		</g>
		<g>
			<polygon fill="#FFFFFF" stroke="#211F1F" stroke-width="2.1863" stroke-linejoin="round" stroke-miterlimit="10" points="
				89.005,29.632 89.005,42.249 95.834,38.825 116.916,50.721 137.837,39.006 128.719,33.417 115.782,41.168 103.941,34.499 
				109.677,31.784 			"/>
			<polyline fill="none" stroke="#211F1F" stroke-width="2.1863" stroke-linejoin="round" stroke-miterlimit="10" points="
				89.005,42.332 89.005,49.414 95.149,45.831 95.149,39.726 			"/>
			<polyline fill="none" stroke="#211F1F" stroke-width="2.1863" stroke-linejoin="round" stroke-miterlimit="10" points="
				95.379,45.831 117.051,57.66 116.869,50.721 			"/>
			<polyline fill="none" stroke="#211F1F" stroke-width="2.1863" stroke-linejoin="round" stroke-miterlimit="10" points="
				116.716,57.66 137.838,45.929 137.838,38.953 			"/>
			
				<line fill="none" stroke="#211F1F" stroke-width="2.1863" stroke-linejoin="round" stroke-miterlimit="10" x1="109.192" y1="31.908" x2="109.192" y2="37.989"/>
		</g>
	</g>
	<g>
		<line fill="#F8941D" x1="51.568" y1="29.302" x2="74.389" y2="29.302"/>
		<g>
			
				<line fill="none" stroke="#211F1F" stroke-width="2.1863" stroke-linecap="round" stroke-linejoin="round" x1="51.568" y1="28.868" x2="67.367" y2="28.868"/>
			<g>
				<polygon fill="#211F1F" points="66.489,33.486 74.341,29 66.489,24.514 				"/>
			</g>
		</g>
	</g>
	<g>
		<line fill="#F8941D" x1="152.015" y1="29.302" x2="174.836" y2="29.302"/>
		<g>
			
				<line fill="none" stroke="#211F1F" stroke-width="2.1863" stroke-linecap="round" stroke-linejoin="round" x1="152.015" y1="28.868" x2="167.813" y2="28.868"/>
			<g>
				<polygon fill="#211F1F" points="166.937,33.486 174.788,29 166.937,24.514 				"/>
			</g>
		</g>
	</g>
	<g>
		<g>
			<g>
				<polygon fill="#F8941D" stroke="#211F1F" stroke-width="2.1863" stroke-linejoin="round" stroke-miterlimit="10" points="
					201.413,52.151 189.013,46.198 189.013,32.428 201.413,38.381 213.589,32.128 213.589,45.898 				"/>
				<polygon fill="#F8941D" stroke="#211F1F" stroke-width="2.1863" stroke-linejoin="round" stroke-miterlimit="10" points="
					201.505,38.381 189.401,32.428 201.393,26.176 213.385,32.128 				"/>
				
					<line fill="#F8941D" stroke="#211F1F" stroke-width="2.1863" stroke-linejoin="round" stroke-miterlimit="10" x1="201.301" y1="51.887" x2="201.301" y2="37.989"/>
			</g>
		</g>
		<g>
			<g>
				<polygon fill="#FFFFFF" stroke="#221F1F" stroke-width="2.1863" stroke-linejoin="round" stroke-miterlimit="10" points="
					213.263,58 201.301,52.047 201.301,38.278 213.263,44.23 225,37.979 225,51.747 				"/>
				<polygon fill="#FFFFFF" stroke="#221F1F" stroke-width="2.1863" stroke-linejoin="round" stroke-miterlimit="10" points="
					213.497,44.23 201.393,38.278 213.385,32.025 225,37.791 				"/>
				
					<line fill="#FFFFFF" stroke="#221F1F" stroke-width="2.1863" stroke-linejoin="round" stroke-miterlimit="10" x1="213.589" y1="57.967" x2="213.589" y2="44.069"/>
			</g>
		</g>
		<g>
			<g>
				<polygon fill="#FFFFFF" stroke="#221F1F" stroke-width="2.1863" stroke-linejoin="round" stroke-miterlimit="10" points="
					201.413,38.736 189.013,32.783 189.013,19.014 201.413,24.967 213.589,18.714 213.589,32.483 				"/>
				<polygon fill="#FFFFFF" stroke="#221F1F" stroke-width="2.1863" stroke-linejoin="round" stroke-miterlimit="10" points="
					201.505,24.967 189.401,19.014 201.393,12.761 213.385,18.714 				"/>
				
					<line fill="#FFFFFF" stroke="#221F1F" stroke-width="2.1863" stroke-linejoin="round" stroke-miterlimit="10" x1="201.301" y1="38.857" x2="201.301" y2="24.959"/>
			</g>
		</g>
		<g>
			<g>
				<polygon fill="#FFFFFF" stroke="#221F1F" stroke-width="2.1863" stroke-linejoin="round" stroke-miterlimit="10" points="
					201.413,25.975 189.013,20.021 189.115,6.367 201.413,12.205 213.529,6.052 213.589,19.722 				"/>
				<polygon fill="#FFFFFF" stroke="#221F1F" stroke-width="2.1863" stroke-linejoin="round" stroke-miterlimit="10" points="
					201.505,12.205 189.013,6.251 201.393,0 213.589,5.953 				"/>
				
					<line fill="#FFFFFF" stroke="#221F1F" stroke-width="2.1863" stroke-linejoin="round" stroke-miterlimit="10" x1="201.301" y1="25.827" x2="201.301" y2="11.929"/>
			</g>
		</g>
		<g>
			<g>
				<polygon fill="#FFFFFF" stroke="#221F1F" stroke-width="2.1863" stroke-linejoin="round" stroke-miterlimit="10" points="
					213.263,45.266 201.301,39.313 201.301,25.544 213.263,31.496 225,25.244 225,39.014 				"/>
				<polygon fill="#FFFFFF" stroke="#221F1F" stroke-width="2.1863" stroke-linejoin="round" stroke-miterlimit="10" points="
					213.497,31.496 201.393,25.544 213.385,19.292 225,25.244 				"/>
				
					<line fill="#FFFFFF" stroke="#221F1F" stroke-width="2.1863" stroke-linejoin="round" stroke-miterlimit="10" x1="213.589" y1="44.938" x2="213.589" y2="31.908"/>
			</g>
		</g>
	</g>
	<g>
		<path fill="#F8941D" stroke="#211F1F" stroke-width="2.1863" stroke-linejoin="round" stroke-miterlimit="10" d="M31.852,21.309
			c-0.119-0.502,0.152,21.792,0.152,21.792l5.04-3.334l0.347-22.32L31.852,21.309z"/>
		<polygon fill="#FFFFFF" stroke="#221F1F" stroke-width="2.1863" stroke-linejoin="round" stroke-miterlimit="10" points="
			31.734,21.088 0,18.919 0,41.508 31.778,43.342 		"/>
		<polygon fill="#FFFFFF" stroke="#221F1F" stroke-width="2.1863" stroke-linejoin="round" stroke-miterlimit="10" points="
			0,18.919 32.072,21.088 37.367,17.148 6.381,15.224 		"/>
		<g>
			
				<polyline fill="none" stroke="#211F1F" stroke-width="2.0928" stroke-linecap="round" stroke-linejoin="round" stroke-miterlimit="10" points="
				10.607,25.829 5.246,30.864 9.595,35.94 			"/>
			
				<polyline fill="none" stroke="#211F1F" stroke-width="2.0928" stroke-linecap="round" stroke-linejoin="round" stroke-miterlimit="10" points="
				21.708,26.577 26.878,33.118 20.405,37.375 			"/>
			
				<line fill="none" stroke="#211F1F" stroke-width="2.0928" stroke-linecap="round" stroke-linejoin="round" stroke-miterlimit="10" x1="12.288" y1="36.276" x2="18.876" y2="26.381"/>
		</g>
	</g>
</g>
</svg>
