<?xml version="1.0" encoding="utf-8"?>
<!-- Generator: Adobe Illustrator 19.2.1, SVG Export Plug-In . SVG Version: 6.00 Build 0)  -->
<svg version="1.1" id="Layer_1" xmlns="http://www.w3.org/2000/svg" xmlns:xlink="http://www.w3.org/1999/xlink" x="0px" y="0px"
	 viewBox="0 0 539.8 170" style="enable-background:new 0 0 539.8 170;" xml:space="preserve">
<style type="text/css">
	.st0{fill:#FF9510;}
	.st1{fill:#FFFFFF;}
	.st2{fill:#211F1F;}
</style>
<g>
	<g id="XMLID_6_">
		<g>
			<polygon class="st0" points="439.4,99.8 466.5,113.3 466.5,144.9 439.4,131.5 			"/>
			<polygon class="st1" points="466.7,77.8 466.5,106.2 439.4,92.7 439.4,64.7 			"/>
			<polygon class="st1" points="533.5,79.7 533.5,108.4 506.2,122.9 506.2,94.2 			"/>
			<path class="st2" d="M285,63.4v13.5h49.6V63.4H285z M265.9,37.5l0.3,11.4l15.5,7.7l8.4-5.7L265.9,37.5z M230.1,66.2L259.8,49
				l-0.3-11.4l-29.4,18.1V66.2z M263.1,54.4l-34.6,20c-0.5,0.3-1,0.4-1.6,0.4c-0.5,0-1-0.1-1.5-0.4L201,61.3c-1-0.6-1.7-1.6-1.7-2.8
				V38.9c0,0,0,0,0,0c0-1.1,0.6-2.1,1.5-2.7l58.5-35.1c1-0.6,2.2-0.6,3.2,0l58.2,33.1l15.1-11c1-0.7,2.2-0.8,3.3-0.3
				s1.7,1.6,1.7,2.8v34.6v19.8c0,1.7-1.4,3.2-3.2,3.2h-55.9c-1.7,0-3.2-1.4-3.2-3.2V62.2L263.1,54.4z M226.9,50.2l33.9-20.8
				c1-0.6,2.2-0.6,3.2-0.1l33.6,18.6c1,0.5,1.6,1.5,1.6,2.6c0.1,1.1-0.5,2.1-1.4,2.8l-5.7,3.9h42.4V31.9l-11.7,8.5
				c-1,0.7-2.4,0.8-3.4,0.2L261,7.5l-52.4,31.4L226.9,50.2z M223.8,55.7l-18.1-11.1v12l18.1,9.8V55.7z"/>
			<polygon class="st0" points="266.2,48.9 265.9,37.5 290,50.9 281.6,56.6 			"/>
			<path class="st1" d="M34.4,103.7c-0.1,1.1,0.3,2.2,1.2,2.9c0.6,0.4,1.3,0.7,1.9,0.7c1,0,1.9-0.4,2.5-1.3l19.8-26
				c0.3-0.4,0.5-0.9,0.6-1.4l1.5,0.2c-0.1,0.8,0.1,1.6,0.7,2.3l11.4,14.6l-14.4,8.9c-1.5,0.9-2,2.9-1,4.4c0.6,1,1.6,1.5,2.7,1.5
				c0.6,0,1.1-0.1,1.7-0.5l20.4-12.6l4.5,0l0.2,24.9l-81.9-4.8V87.6h4.7l16.4,17.5c0.6,0.7,1.5,1,2.3,1c0.8,0,1.6-0.3,2.2-0.9
				c0.5-0.5,0.8-1.1,0.9-1.7L34.4,103.7z"/>
			<path class="st2" d="M283.3,148.1l0.3,12.3l51.8-29.8v-12L283.3,148.1z M276.9,148.2l-53.7-30.6v13l54,29.8L276.9,148.2z
				 M204.9,137.2l12-6.6v-12.2l-12,6V137.2z M204.9,90.3v26.9l14.7-7.4c0.4-0.2,0.9-0.3,1.4-0.3c0.5,0,1.1,0.1,1.6,0.4l57.4,32.7
				l52.3-29.5l-19.2-11.9L278.7,122c-1,0.6-2.2,0.6-3.2,0l-33.1-18.8c-1-0.6-1.6-1.7-1.6-2.9c0-1.2,0.7-2.2,1.8-2.8l5.8-2.8
				L204.9,90.3z M260.1,89.7c1.4,0.1,2.6,1.2,2.8,2.6c0,0.2,0,0.4,0,0.6h0v14.8l14.1,8l34.5-20.9c1-0.6,2.3-0.6,3.3,0l25.4,15.8
				c0.9,0.6,1.5,1.6,1.5,2.7h0v19.3c0,1.1-0.6,2.2-1.6,2.7l-58,33.4c-0.5,0.3-1,0.4-1.6,0.4c-0.5,0-1-0.1-1.5-0.4l-59-32.5
				l-16.8,9.3c-0.5,0.3-1,0.4-1.5,0.4c-0.6,0-1.1-0.2-1.6-0.4c-1-0.6-1.6-1.6-1.6-2.7v-20.2V86.8c0-0.9,0.4-1.8,1-2.4
				c0.7-0.6,1.6-0.9,2.5-0.8L260.1,89.7z M256.6,104v-6.1l-5.8,2.8L256.6,104z"/>
			<path class="st2" d="M94.7,64.4c-0.1,6.5-0.1,33.7-0.1,54.9l7-4.9V59.7L94.7,64.4z M91.2,128.6L3,123.5c-1.7-0.1-3-1.5-3-3.2
				V56.6c0,0,0-0.1,0-0.1c0-0.1,0-0.1,0-0.2c0-0.3,0.1-0.5,0.2-0.7c0,0,0-0.1,0-0.1c0.1-0.3,0.2-0.5,0.4-0.7c0,0,0.1-0.1,0.1-0.1
				c0.1-0.1,0.1-0.2,0.2-0.2C1.1,54.1,1.2,54,1.4,54c0,0,0,0,0.1-0.1l15.1-9.8c0.6-0.4,1.3-0.6,2-0.5l86.5,6.9c0.1,0,0.1,0,0.2,0
				c0.2,0,0.4,0.1,0.6,0.1c0.1,0,0.2,0.1,0.3,0.1c0,0,0.1,0,0.1,0.1c0.1,0.1,0.2,0.2,0.3,0.2c0.1,0.1,0.2,0.1,0.3,0.2
				c0.2,0.1,0.3,0.3,0.4,0.5c0,0.1,0.1,0.1,0.1,0.2c0.2,0.3,0.3,0.5,0.4,0.8c0,0,0,0,0,0c0,0.1,0,0.2,0,0.2c0,0.2,0.1,0.4,0.1,0.6
				v62.4c0,1-0.5,2-1.3,2.6l-13.3,9.4c0,0,0,0,0,0c-0.2,0.2-0.5,0.3-0.8,0.4c0,0-0.1,0-0.2,0c-0.3,0.1-0.6,0.1-0.9,0.1
				C91.4,128.6,91.3,128.6,91.2,128.6z M87.7,65.6L6.4,60v27.6v29.7l81.9,4.8L88,97.2L87.7,65.6z M90,59.4l5.2-3.4l-76.1-6l-6.2,4
				l32.9,2.3L90,59.4z"/>
			<polygon class="st0" points="259.8,49 230.1,66.2 230.1,55.7 259.5,37.6 			"/>
			<path class="st2" d="M74.1,95.6L62.7,81c-0.5-0.7-0.7-1.5-0.7-2.3c0.1-0.8,0.5-1.6,1.2-2.2c1.4-1.1,3.4-0.8,4.5,0.6l15.8,20.2
				l-20.4,12.6c-0.5,0.3-1.1,0.5-1.7,0.5c-1.1,0-2.1-0.5-2.7-1.5c-0.9-1.5-0.5-3.5,1-4.4L74.1,95.6z"/>
			<path class="st2" d="M164,97.7v-9.5h-41.2c-1.7,0-3.2-1.4-3.2-3.2c0-1.8,1.4-3.2,3.2-3.2H164v-9.5L185.9,85L164,97.7z"/>
			<path class="st2" d="M35,102.1l19.8-26c1.1-1.4,3-1.7,4.4-0.6c1,0.7,1.4,1.9,1.2,3c-0.1,0.5-0.3,1-0.6,1.4l-19.8,26
				c-0.6,0.8-1.6,1.3-2.5,1.3c-0.7,0-1.3-0.2-1.9-0.7c-0.9-0.7-1.3-1.8-1.2-2.9C34.5,103.1,34.7,102.6,35,102.1z"/>
			<polygon class="st1" points="473.1,70.7 473.2,39.5 500,25.2 500,56.4 493.7,59.7 			"/>
			<path class="st1" d="M6.4,87.6V60l81.3,5.7L88,97.2l-4.5,0L67.7,77.1c-1.1-1.4-3.1-1.6-4.5-0.6c-0.7,0.6-1.1,1.3-1.2,2.2
				l-1.5-0.2c0.2-1.1-0.3-2.3-1.2-3c-1.4-1.1-3.4-0.8-4.4,0.6l-19.8,26c-0.4,0.5-0.6,1-0.6,1.6l-1.6-0.1c0.2-1,0-2-0.8-2.8
				L20.5,88.4l14.9-11.1c1.4-1,1.7-3,0.7-4.4c-1-1.4-3-1.7-4.4-0.7L11.1,87.6H6.4z"/>
			<polygon class="st0" points="283.6,160.5 283.3,148.1 335.4,118.7 335.4,130.7 			"/>
			<polygon class="st1" points="482.4,72.9 503.2,61.9 529.6,74.6 522.6,78.3 503.4,88.5 477.3,75.6 			"/>
			<polygon class="st1" points="439.4,25.9 466.8,39.6 466.7,70.6 439.4,57.7 			"/>
			<polygon class="st0" points="204.9,137.2 204.9,124.3 216.9,118.4 216.9,130.6 			"/>
			<path class="st1" d="M260.9,29.3l-33.9,20.8l-18.3-11.2L261,7.5l58.4,33.1c1.1,0.6,2.4,0.5,3.4-0.2l11.7-8.5v25.2h-42.4l5.7-3.9
				c0.9-0.6,1.4-1.7,1.4-2.8c0-1.1-0.7-2.1-1.6-2.6l-33.6-18.6C263.1,28.7,261.8,28.7,260.9,29.3z"/>
			<polygon class="st1" points="19.1,50 95.2,56.1 90,59.4 45.8,56.4 12.9,54 			"/>
			<polygon class="st1" points="473.1,80.9 499.8,93.8 499.8,122.6 473.2,109.4 			"/>
			<path class="st1" d="M219.7,109.9l-14.7,7.4V90.3l43.4,4.6l-5.8,2.8c-1.1,0.5-1.7,1.6-1.8,2.8c0,1.2,0.6,2.3,1.6,2.9l33.1,18.8
				c1,0.6,2.2,0.6,3.2,0l34.4-20.9l19.2,11.9l-52.3,29.5L222.6,110c-0.5-0.3-1-0.4-1.6-0.4C220.6,109.6,220.1,109.7,219.7,109.9z"/>
			<polygon class="st1" points="533.5,115.6 533.5,147.3 506.2,161.8 506.2,130.1 			"/>
			<path class="st2" d="M11.1,87.6l20.6-15.3c1.4-1,3.4-0.8,4.4,0.7c1,1.4,0.7,3.4-0.7,4.4L20.5,88.4l11.5,12.4
				c0.7,0.8,1,1.8,0.8,2.8c-0.1,0.6-0.4,1.2-0.9,1.7c-0.6,0.6-1.4,0.9-2.2,0.9c-0.8,0-1.7-0.3-2.3-1L11.1,87.6z"/>
			<polygon class="st0" points="205.7,44.6 223.8,55.7 223.8,66.4 205.7,56.6 			"/>
			<polygon class="st0" points="256.6,97.9 256.6,104 250.8,100.7 			"/>
			<polygon class="st1" points="443.2,20.7 469.7,6.7 496.2,20 469.9,34 			"/>
			<path class="st2" d="M466.8,39.6l-27.4-13.6v31.7l27.3,12.9L466.8,39.6z M439.4,131.5l27.1,13.4v-31.6l-27.1-13.5V131.5z
				 M466.5,106.2l0.2-28.4l-27.3-13.1v28L466.5,106.2z M443.2,20.7L469.9,34l26.3-14L469.7,6.7L443.2,20.7z M502.1,169.7l-32.5-16.2
				l-34.8-17.1c-1.1-0.5-1.8-1.6-1.8-2.8V95.7v-1v-35V20.8c0-0.3,0-0.6,0.1-0.8c0-0.1,0.1-0.1,0.1-0.2c0.1-0.2,0.1-0.4,0.3-0.6
				c0-0.1,0.1-0.2,0.2-0.3c0.1-0.1,0.2-0.3,0.3-0.4c0.1-0.1,0.2-0.2,0.3-0.2c0.1-0.1,0.2-0.2,0.3-0.2c0,0,0.1,0,0.1-0.1
				c0,0,0,0,0.1,0l33.5-17.6c0.9-0.5,2-0.5,2.9,0l33.5,16.8c0,0,0.1,0,0.1,0.1c0,0,0.1,0,0.1,0c0.1,0.1,0.2,0.1,0.3,0.2
				c0.1,0.1,0.2,0.1,0.3,0.2c0.1,0.1,0.2,0.2,0.3,0.4c0.1,0.1,0.2,0.2,0.2,0.3c0.1,0.1,0.2,0.3,0.2,0.5c0,0.1,0.1,0.2,0.1,0.3
				c0.1,0.2,0.1,0.4,0.1,0.6c0,0.1,0,0.2,0,0.2v0c0,0,0,0,0,0v36.4L538,71.5c0,0,0.1,0.1,0.1,0.1c0,0,0.1,0,0.1,0.1
				c0.1,0.1,0.2,0.1,0.3,0.2c0.1,0.1,0.2,0.1,0.3,0.2c0.1,0.1,0.2,0.2,0.3,0.3c0.1,0.1,0.2,0.2,0.2,0.3c0.1,0.1,0.1,0.3,0.2,0.4
				c0,0.1,0.1,0.2,0.1,0.3c0,0.2,0.1,0.3,0.1,0.5c0,0.1,0,0.2,0,0.3c0,0,0,0,0,0c0,0,0,0,0,0v35.9v2.9v35.9c0,1.2-0.6,2.2-1.7,2.8
				L505,169.6c-0.5,0.2-1,0.4-1.5,0.4C503,170,502.5,169.9,502.1,169.7z M499.8,129.7l-27-13.4v31.8l27,13.4V129.7z M473.1,70.7
				l20.7-11l6.2-3.3V25.2l-26.8,14.3L473.1,70.7z M503.2,61.9l-20.8,11l-5.2,2.7l26.2,12.9l19.2-10.2l7-3.7L503.2,61.9z M499.8,93.8
				l-26.8-12.9l0.1,28.5l26.7,13.3V93.8z M533.5,147.3v-31.7l-27.3,14.5v31.7L533.5,147.3z M533.5,108.4V79.7l-27.3,14.5v28.8
				L533.5,108.4z"/>
			<rect x="285" y="63.4" class="st0" width="49.6" height="13.5"/>
			<path class="st2" d="M401.6,72.3L423.5,85l-21.9,12.6v-9.5h-41.2c-1.7,0-3.2-1.4-3.2-3.2c0-1.8,1.4-3.2,3.2-3.2h41.2V72.3z"/>
			<polygon class="st0" points="223.2,130.6 223.2,117.6 276.9,148.2 277.3,160.4 			"/>
			<polygon class="st1" points="499.8,161.5 472.9,148.1 472.9,116.3 499.8,129.7 			"/>
			<path class="st0" d="M94.6,119.3c0-21.2,0-48.4,0.1-54.9l6.8-4.7v54.7L94.6,119.3z"/>
		</g>
		<g>
		</g>
	</g>
</g>
</svg>
