<?xml version="1.0" encoding="utf-8"?>
<!-- Generator: Adobe Illustrator 16.0.0, SVG Export Plug-In . SVG Version: 6.00 Build 0)  -->
<!DOCTYPE svg PUBLIC "-//W3C//DTD SVG 1.1//EN" "http://www.w3.org/Graphics/SVG/1.1/DTD/svg11.dtd">
<svg version="1.1" id="Layer_1" xmlns="http://www.w3.org/2000/svg" xmlns:xlink="http://www.w3.org/1999/xlink" x="0px" y="0px"
	 width="150px" height="130px" viewBox="0 0 150 130" enable-background="new 0 0 150 130" xml:space="preserve">
<g>
	<path fill="#FFFFFF" stroke="#221F1F" stroke-width="4" stroke-miterlimit="10" d="M31.485,52.498
		c-0.064-9.905,2.543-17.961,6.49-23.853c4.928-7.358,11.943-11.343,18.449-11.343c7.159,0,13.475,3.557,17.316,8.987
		c4.676-4.388,10.948-7.095,17.866-7.095c12.757,0,23.363,9.146,25.659,21.234c0.16-0.003,0.315-0.023,0.476-0.023
		c11.714,0,21.211,9.496,21.211,21.211l-4.52,17.612"/>
</g>
<g>
	<path fill="#FFFFFF" stroke="#221F1F" stroke-width="4" stroke-miterlimit="10" d="M113.55,96.732
		c11.714,0,21.212-9.496,21.212-21.211S125.264,54.31,113.55,54.31c-0.159,0-0.315,0.021-0.476,0.024
		c-2.295-12.089-12.902-21.235-25.658-21.235c-6.919,0-13.191,2.708-17.866,7.096c-3.841-5.431-10.157-8.987-17.316-8.987
		c-11.714,0-21.21,9.497-21.21,21.211c0,0.673,0.04,1.336,0.101,1.992c-10.785,1-19.231,10.064-19.231,21.111
		c0,11.715,9.496,21.211,21.21,21.211c0.08,0,46.153,0,46.153,0"/>
	<polygon fill="#F8941D" stroke="#211F1F" stroke-width="4" stroke-miterlimit="10" points="99.264,96.732 86.174,103.685 
		73.084,110.637 73.084,96.732 73.084,82.828 86.174,89.78 	"/>
</g>
</svg>
