<?xml version="1.0" encoding="utf-8"?>
<!-- Generator: Adobe Illustrator 16.0.0, SVG Export Plug-In . SVG Version: 6.00 Build 0)  -->
<!DOCTYPE svg PUBLIC "-//W3C//DTD SVG 1.1//EN" "http://www.w3.org/Graphics/SVG/1.1/DTD/svg11.dtd">
<svg version="1.1" id="Layer_1" xmlns="http://www.w3.org/2000/svg" xmlns:xlink="http://www.w3.org/1999/xlink" x="0px" y="0px"
	 width="150px" height="130px" viewBox="0 0 150 130" enable-background="new 0 0 150 130" xml:space="preserve">
<g>
	<polygon fill="#FFFFFF" stroke="#221F1F" stroke-width="2.4" stroke-linejoin="round" stroke-miterlimit="10" points="
		61.815,70.782 73.536,64.692 73.536,50.651 61.892,57.068 	"/>
	<polygon fill="#FFFFFF" stroke="#221F1F" stroke-width="2.4" stroke-linejoin="round" stroke-miterlimit="10" points="
		49.896,50.537 61.892,57.068 73.536,50.651 85.761,57.068 96.857,50.537 73.189,38.129 	"/>
	<polygon fill="#FFFFFF" stroke="#221F1F" stroke-width="2.4" stroke-linejoin="round" stroke-miterlimit="10" points="
		61.951,57.068 61.774,70.782 74.176,77.312 85.479,70.945 85.579,57.068 96.854,50.537 96.385,76.827 73.704,89.885 49.896,76.007 
		49.896,50.537 	"/>
	<polyline fill="#FFFFFF" stroke="#221F1F" stroke-width="2.4" stroke-linejoin="round" stroke-miterlimit="10" points="
		61.761,70.782 74.25,77.312 74.006,89.885 	"/>
	<polygon fill="#FFFFFF" stroke="#221F1F" stroke-width="2.4" stroke-linejoin="round" stroke-miterlimit="10" points="
		73.513,50.651 85.683,56.989 85.352,70.867 73.513,64.692 	"/>
	<path fill="#FFFFFF" stroke="#221F1F" stroke-width="2.4" stroke-linejoin="round" stroke-miterlimit="10" d="M85.271,70.945"/>
	<polygon fill="#FFFFFF" stroke="#221F1F" stroke-width="2.4" stroke-linejoin="round" stroke-miterlimit="10" points="
		61.842,70.782 73.536,64.692 85.271,70.945 74.25,77.312 	"/>
	<g>
		<g>
			<polygon fill="#F8941D" stroke="#211F1F" stroke-width="2.4" stroke-linejoin="round" stroke-miterlimit="10" points="
				73.647,55.843 61.716,49.894 61.716,36.133 73.647,42.082 85.355,35.833 85.355,49.595 			"/>
			<polygon fill="#F8941D" stroke="#211F1F" stroke-width="2.4" stroke-linejoin="round" stroke-miterlimit="10" points="
				73.79,42.082 61.716,36.133 73.679,29.884 85.355,35.833 			"/>
			
				<line fill="#F8941D" stroke="#211F1F" stroke-width="2.4" stroke-linejoin="round" stroke-miterlimit="10" x1="73.536" y1="55.626" x2="73.536" y2="42.033"/>
		</g>
	</g>
</g>
</svg>
