<?xml version="1.0" encoding="utf-8"?>
<!-- Generator: Adobe Illustrator 16.0.0, SVG Export Plug-In . SVG Version: 6.00 Build 0)  -->
<!DOCTYPE svg PUBLIC "-//W3C//DTD SVG 1.1//EN" "http://www.w3.org/Graphics/SVG/1.1/DTD/svg11.dtd">
<svg version="1.1" id="Layer_1" xmlns="http://www.w3.org/2000/svg" xmlns:xlink="http://www.w3.org/1999/xlink" x="0px" y="0px"
	 width="125px" height="125px" viewBox="0 0 125 125" enable-background="new 0 0 125 125" xml:space="preserve">
<g>
	<linearGradient id="SVGID_1_" gradientUnits="userSpaceOnUse" x1="0.0073" y1="61.6274" x2="190.8262" y2="64.2916">
		<stop  offset="0" style="stop-color:#FEC01B"/>
		<stop  offset="1" style="stop-color:#E6225A"/>
	</linearGradient>
	<path fill="url(#SVGID_1_)" d="M62.493,0C27.975,0,0,27.975,0,62.493S27.975,125,62.493,125c34.52,0,62.508-27.988,62.508-62.507
		S97.013,0,62.493,0z M60.814,95.108c-3.438,0-6.081-2.883-6.081-6.161c0-3.358,2.724-6.161,6.081-6.161
		c3.358,0,6.161,2.803,6.161,6.161C66.976,92.226,64.252,95.108,60.814,95.108z M56.334,71.906c0-6.888,3.04-10.167,5.367-12.163
		c2.631-2.248,7.112-4.72,7.112-9.043c0-3.688-3.199-5.447-7.192-5.447c-8.17,0-6.412,6.161-10.722,6.161
		c-2.168,0-4.812-1.44-4.812-4.561c0-4.31,4.97-10.722,15.771-10.722c10.246,0,17.041,5.685,17.041,13.207
		s-6.795,12.969-8.964,14.648c-4.401,3.438-4.481,5.83-4.481,9.994c0,1.521-0.793,3.279-4.72,3.279
		C57.457,77.261,56.334,76.071,56.334,71.906"/>
</g>
</svg>
