<?xml version="1.0" encoding="utf-8"?>
<!-- Generator: Adobe Illustrator 16.0.0, SVG Export Plug-In . SVG Version: 6.00 Build 0)  -->
<!DOCTYPE svg PUBLIC "-//W3C//DTD SVG 1.1//EN" "http://www.w3.org/Graphics/SVG/1.1/DTD/svg11.dtd">
<svg version="1.1" id="Layer_1" xmlns="http://www.w3.org/2000/svg" xmlns:xlink="http://www.w3.org/1999/xlink" x="0px" y="0px"
	 width="700px" height="50px" viewBox="-25 0 700 50" enable-background="new -25 0 700 50" xml:space="preserve">
<path fill="#211F1F" d="M150,0c-13.822,0-25,11.178-25,25c0,13.822,11.178,25,25,25s25-11.178,25-25C175,11.178,163.822,0,150,0z
	 M157.259,32.741c-2.091,0-3.582-1.226-3.894-2.668c-1.298,1.489-2.596,2.403-4.736,2.403c-2.427,0-4.783-1.227-4.783-4.304
	c0-3.558,3.125-4.544,7.573-4.544h1.417V22.98c0-1.945-1.082-2.858-3.366-2.858c-2.355,0-3.052,0.983-3.702,0.983
	c-0.601,0-1.01-1.032-1.01-1.562c0-1.25,2.741-2.233,5.169-2.233c3.317,0,5.865,1.706,5.865,4.976v6.418
	c0.193,1.25,0.841,1.851,1.682,1.851c2.019,0,2.332-3.462,2.332-5.601c0-6.73-3.004-10.577-9.638-10.577
	c-7.621,0-9.905,5.167-9.905,10.961c0,5.41,2.044,10.289,8.727,10.289c3.197,0,4.423-1.01,5.217-1.01
	c0.648,0,1.033,0.744,1.033,1.177c0,1.396-4.086,2.285-6.707,2.285c-5.696,0-10.985-4.015-10.985-12.692
	c0-7.5,3.894-13.462,12.644-13.462c7.812,0,12.284,4.615,12.284,12.5C162.476,28.848,160.985,32.741,157.259,32.741z
	 M147.115,28.125c0,1.417,0.913,2.066,2.163,2.066c2.067,0,3.679-1.61,3.679-3.102v-1.562h-1.155
	C148.941,25.529,147.115,26.105,147.115,28.125z"/>
<g>
	<polygon fill="#211F1F" points="4.639,13.798 4.639,18.485 8.293,18.485 	"/>
	<path fill="#211F1F" d="M2.668,11.923H-9.207v26.155H9.206V20.48H2.668V11.923z M6.923,36.034H-7.596v-1.972H6.923V36.034z
		 M6.923,32.164H-7.596v-1.971H6.923V32.164z M6.923,28.294H-7.596v-1.996H6.923V28.294z M6.923,22.429v1.97H-7.596v-1.97H6.923z"/>
	<path fill="#211F1F" d="M0,0c-13.822,0-25,11.178-25,25c0,13.822,11.178,25,25,25s25-11.178,25-25C25,11.178,13.822,0,0,0z
		 M11.057,39.954h-22.115V10.048H4.11l6.946,8.99L11.057,39.954L11.057,39.954z"/>
</g>
<path fill="#211F1F" d="M50,0C36.178,0,25,11.178,25,25c0,13.822,11.178,25,25,25s25-11.178,25-25C75,11.178,63.822,0,50,0z
	 M54.4,38.535c-0.698,0.145-0.938-0.288-0.938-0.674v-3.799c0-1.297-0.434-2.164-0.938-2.571c3.101-0.361,6.346-1.538,6.346-6.875
	c0-1.515-0.529-2.765-1.419-3.726c0.145-0.361,0.602-1.779-0.144-3.679c0,0-1.178-0.384-3.822,1.418
	c-1.106-0.312-2.308-0.456-3.486-0.456c-1.177,0-2.379,0.144-3.485,0.456c-2.645-1.802-3.822-1.418-3.822-1.418
	c-0.746,1.899-0.265,3.317-0.145,3.679c-0.865,0.961-1.418,2.211-1.418,3.726c0,5.337,3.246,6.514,6.322,6.875
	c-0.385,0.36-0.745,0.962-0.866,1.851c-0.793,0.361-2.812,0.986-4.062-1.152c0,0-0.721-1.322-2.115-1.42c0,0-1.37-0.021-0.096,0.842
	c0,0,0.913,0.433,1.538,2.02c0,0,0.818,2.719,4.688,1.875c0,1.155,0.024,2.044,0.024,2.355c0,0.387-0.265,0.818-0.961,0.675
	c-5.529-1.828-9.496-7.044-9.496-13.198c0-7.669,6.226-13.895,13.894-13.895c7.692,0,13.918,6.226,13.918,13.895
	C63.918,31.491,59.928,36.707,54.4,38.535z"/>
<path fill="#211F1F" d="M100,0C86.178,0,75,11.178,75,25c0,13.822,11.178,25,25,25s25-11.178,25-25C125,11.178,113.822,0,100,0z
	 M110.625,19.542v0.723c0,7.235-5.505,15.575-15.577,15.575c-3.077,0-5.961-0.912-8.39-2.451c0.433,0.049,0.866,0.072,1.298,0.072
	c2.572,0,4.928-0.865,6.803-2.332c-2.38-0.049-4.4-1.633-5.097-3.82c0.337,0.07,0.674,0.094,1.01,0.094
	c0.505,0,0.986-0.071,1.443-0.19c-2.5-0.506-4.375-2.715-4.375-5.36V21.78c0.746,0.409,1.587,0.674,2.476,0.697
	c-1.466-0.985-2.427-2.667-2.427-4.566c0-1.011,0.264-1.948,0.72-2.742c2.716,3.294,6.755,5.481,11.298,5.698
	c-0.096-0.386-0.144-0.817-0.144-1.226c0-3.029,2.452-5.48,5.48-5.48c1.562,0,3.004,0.649,3.991,1.73
	c1.25-0.241,2.427-0.698,3.486-1.323c-0.409,1.274-1.275,2.332-2.405,3.006c1.106-0.12,2.164-0.409,3.125-0.841
	C112.621,17.813,111.683,18.774,110.625,19.542z"/>
<path fill="#808184" d="M350,0c-13.822,0-25,11.178-25,25c0,13.822,11.178,25,25,25s25-11.178,25-25C375,11.178,363.822,0,350,0z
	 M357.259,32.741c-2.091,0-3.582-1.226-3.895-2.668c-1.298,1.489-2.597,2.403-4.735,2.403c-2.427,0-4.783-1.227-4.783-4.304
	c0-3.558,3.127-4.544,7.573-4.544h1.417V22.98c0-1.945-1.081-2.858-3.365-2.858c-2.354,0-3.053,0.983-3.701,0.983
	c-0.602,0-1.011-1.032-1.011-1.562c0-1.25,2.741-2.233,5.169-2.233c3.317,0,5.865,1.706,5.865,4.976v6.418
	c0.191,1.25,0.841,1.851,1.684,1.851c2.019,0,2.33-3.462,2.33-5.601c0-6.73-3.004-10.577-9.638-10.577
	c-7.621,0-9.905,5.167-9.905,10.961c0,5.41,2.045,10.289,8.728,10.289c3.196,0,4.423-1.01,5.217-1.01
	c0.647,0,1.032,0.744,1.032,1.177c0,1.396-4.086,2.285-6.707,2.285c-5.696,0-10.984-4.015-10.984-12.692
	c0-7.5,3.895-13.462,12.645-13.462c7.812,0,12.283,4.615,12.283,12.5C362.477,28.848,360.984,32.741,357.259,32.741z
	 M347.115,28.125c0,1.417,0.912,2.066,2.162,2.066c2.066,0,3.68-1.61,3.68-3.102v-1.562h-1.155
	C348.941,25.529,347.115,26.105,347.115,28.125z"/>
<g>
	<polygon fill="#808184" points="204.639,13.797 204.639,18.485 208.293,18.485 	"/>
	<path fill="#808184" d="M202.668,11.922h-11.875v26.155h18.413V20.481h-6.538V11.922z M206.923,36.034h-14.519v-1.972h14.519
		V36.034z M206.923,32.164h-14.519v-1.971h14.519V32.164z M206.923,28.294h-14.519v-1.996h14.519V28.294z M206.923,22.428v1.971
		h-14.519v-1.971H206.923z"/>
	<path fill="#808184" d="M200,0c-13.822,0-25,11.178-25,25c0,13.822,11.178,25,25,25s25-11.178,25-25C225,11.178,213.822,0,200,0z
		 M211.057,39.954h-22.114V10.048h15.168l6.946,8.99V39.954z"/>
</g>
<path fill="#808184" d="M250,0c-13.822,0-25,11.178-25,25c0,13.822,11.178,25,25,25s25-11.178,25-25C275,11.178,263.822,0,250,0z
	 M254.4,38.535c-0.698,0.145-0.938-0.288-0.938-0.674v-3.799c0-1.297-0.434-2.164-0.938-2.571c3.101-0.361,6.347-1.538,6.347-6.875
	c0-1.515-0.529-2.765-1.42-3.726c0.146-0.361,0.602-1.779-0.144-3.679c0,0-1.178-0.384-3.821,1.418
	c-1.106-0.312-2.309-0.456-3.486-0.456s-2.379,0.144-3.485,0.456c-2.645-1.802-3.821-1.418-3.821-1.418
	c-0.746,1.899-0.266,3.317-0.146,3.679c-0.864,0.961-1.418,2.211-1.418,3.726c0,5.337,3.245,6.514,6.322,6.875
	c-0.385,0.36-0.745,0.962-0.866,1.851c-0.793,0.361-2.812,0.986-4.062-1.152c0,0-0.722-1.322-2.115-1.42c0,0-1.37-0.021-0.097,0.842
	c0,0,0.914,0.433,1.539,2.02c0,0,0.817,2.719,4.688,1.875c0,1.155,0.023,2.044,0.023,2.355c0,0.387-0.264,0.818-0.961,0.675
	c-5.529-1.828-9.496-7.044-9.496-13.198c0-7.669,6.227-13.895,13.895-13.895c7.692,0,13.918,6.226,13.918,13.895
	C263.918,31.491,259.928,36.707,254.4,38.535z"/>
<path fill="#808184" d="M300,0c-13.822,0-25,11.178-25,25c0,13.822,11.178,25,25,25c13.822,0,25-11.178,25-25
	C325,11.178,313.822,0,300,0z M310.625,19.542v0.723c0,7.235-5.505,15.575-15.576,15.575c-3.077,0-5.962-0.912-8.391-2.451
	c0.434,0.049,0.866,0.072,1.299,0.072c2.572,0,4.928-0.865,6.803-2.332c-2.379-0.049-4.399-1.633-5.097-3.82
	c0.337,0.07,0.675,0.094,1.01,0.094c0.505,0,0.986-0.071,1.442-0.19c-2.5-0.506-4.375-2.715-4.375-5.36V21.78
	c0.746,0.409,1.588,0.674,2.477,0.697c-1.467-0.985-2.428-2.667-2.428-4.566c0-1.011,0.264-1.948,0.721-2.742
	c2.717,3.294,6.755,5.481,11.299,5.698c-0.097-0.386-0.145-0.817-0.145-1.226c0-3.029,2.451-5.48,5.48-5.48
	c1.562,0,3.004,0.649,3.989,1.73c1.25-0.241,2.429-0.698,3.486-1.323c-0.409,1.274-1.274,2.332-2.404,3.006
	c1.105-0.12,2.164-0.409,3.125-0.841C312.621,17.813,311.684,18.774,310.625,19.542z"/>
<g>
	<g>
		<path fill="#BBBDBF" d="M449.999,50C436.214,50,425,38.787,425,25s11.214-25,24.999-25C463.785,0,475,11.214,475,25
			S463.785,50,449.999,50z M449.999,1.847c-12.766,0-23.152,10.387-23.152,23.153c0,12.766,10.388,23.152,23.152,23.152
			c12.767,0,23.153-10.389,23.153-23.152C473.152,12.234,462.766,1.847,449.999,1.847z"/>
	</g>
	<g>
		<path fill="#BBBDBF" d="M441.894,22.934h15.247c0.762,0,1.468,0.761,1.468,1.76c0,0.996-0.706,1.642-1.468,1.642h-15.247
			c-0.88,0-1.467-0.646-1.467-1.642C440.427,23.695,441.014,22.934,441.894,22.934z"/>
	</g>
</g>
<g>
	<g>
		<path fill="#BBBDBF" d="M400.001,50C386.215,50,375,38.786,375,25c0-13.785,11.215-25,25.001-25C413.786,0,425,11.215,425,25
			C425,38.786,413.786,50,400.001,50z M400.001,1.847c-12.767,0-23.153,10.387-23.153,23.153c0,12.766,10.387,23.152,23.153,23.152
			c12.766,0,23.152-10.387,23.152-23.152C423.153,12.234,412.767,1.847,400.001,1.847z"/>
	</g>
	<g>
		<path fill="#BBBDBF" d="M398.344,34.077v-7.74h-7.74c-0.82,0-1.406-0.646-1.406-1.643c0-0.998,0.586-1.759,1.406-1.759h7.74
			v-7.624c0-0.763,0.764-1.525,1.701-1.525c0.997,0,1.7,0.763,1.7,1.525v7.624h7.624c0.763,0,1.524,0.761,1.524,1.759
			c0,0.998-0.763,1.643-1.524,1.643h-7.624v7.74c0,0.819-0.703,1.405-1.7,1.405C399.106,35.482,398.344,34.896,398.344,34.077z"/>
	</g>
</g>
<g>
	<g>
		<circle fill="#211F1F" cx="550" cy="25" r="25"/>
		<g>
			<path fill="#E8233A" d="M571.924,25h-3.877c0-4.82-1.877-9.352-5.285-12.762C559.354,8.831,554.82,6.954,550,6.954V3.077
				c2.959,0,5.83,0.58,8.535,1.725c2.608,1.104,4.953,2.684,6.967,4.697s3.594,4.357,4.697,6.967
				C571.344,19.17,571.924,22.042,571.924,25z"/>
		</g>
		<g>
			<path fill="#EC5328" d="M565.625,25h-3.875c0-3.139-1.223-6.09-3.441-8.309c-2.218-2.219-5.17-3.441-8.309-3.441V9.375
				c2.109,0,4.154,0.414,6.082,1.229c1.861,0.787,3.531,1.914,4.967,3.348c1.435,1.436,2.562,3.105,3.348,4.967
				C565.211,20.844,565.625,22.891,565.625,25z"/>
		</g>
		<g>
			<path fill="#F49423" d="M559.326,25h-3.875c0-3.006-2.445-5.449-5.451-5.449v-3.877C555.143,15.674,559.326,19.858,559.326,25z"
				/>
		</g>
		<g>
			<path fill="#F8DC02" d="M553.027,25H550v-3.027C551.67,21.973,553.027,23.331,553.027,25z"/>
		</g>
	</g>
</g>
<g>
	<path fill="#BBBDBF" d="M500,50c-13.785,0-25-11.215-25-25s11.215-25,25-25s25,11.215,25,25C525,38.786,513.785,50,500,50z
		 M500,1.598c-12.904,0-23.402,10.498-23.402,23.402c0,12.904,10.498,23.402,23.402,23.402S523.402,37.904,523.402,25
		C523.402,12.095,512.904,1.598,500,1.598z"/>
	<g>
		<path fill="#BBBDBF" d="M501.499,14.252l10.491,15.854c0.177,0.234,0.236,0.473,0.236,0.707c0,0.824-0.825,1.828-1.827,1.828
			c-0.531,0-1.003-0.297-1.238-0.649l-9.253-14.025l-9.312,14.025c-0.235,0.354-0.706,0.649-1.237,0.649
			c-1.002,0-1.827-1.004-1.827-1.828c0-0.234,0.059-0.473,0.236-0.707l10.489-15.854c0.354-0.531,1.062-0.943,1.649-0.943
			C500.498,13.309,501.146,13.663,501.499,14.252z"/>
	</g>
</g>
<g>
	<g>
		
			<linearGradient id="SVGID_1_" gradientUnits="userSpaceOnUse" x1="646.0029" y1="-246.1514" x2="722.3319" y2="-247.217" gradientTransform="matrix(1 0 0 -1 -71 -221.5)">
			<stop  offset="0" style="stop-color:#FEC01B"/>
			<stop  offset="1" style="stop-color:#E6225A"/>
		</linearGradient>
		<path fill="url(#SVGID_1_)" d="M599.998,0C586.189,0,575,11.19,575,24.999C575,38.805,586.189,50,599.998,50
			C613.806,50,625,38.805,625,24.999C625,11.19,613.806,0,599.998,0z M599.325,38.044c-1.374,0-2.433-1.153-2.433-2.465
			c0-1.343,1.09-2.465,2.433-2.465c1.344,0,2.465,1.122,2.465,2.465C601.79,36.891,600.701,38.044,599.325,38.044z M597.533,28.764
			c0-2.756,1.217-4.068,2.146-4.866c1.055-0.898,2.847-1.888,2.847-3.617c0-1.476-1.28-2.179-2.876-2.179
			c-3.27,0-2.565,2.464-4.29,2.464c-0.867,0-1.924-0.576-1.924-1.823c0-1.725,1.987-4.289,6.309-4.289
			c4.098,0,6.816,2.273,6.816,5.282c0,3.01-2.72,5.188-3.587,5.86c-1.761,1.375-1.792,2.332-1.792,3.997
			c0,0.608-0.316,1.312-1.889,1.312C597.982,30.904,597.533,30.428,597.533,28.764"/>
	</g>
</g>
<g>
	<circle fill="#FF9510" cx="650" cy="25" r="25"/>
	<path fill="#FFFFFF" d="M646.809,16.905l10.746,6.895c0.874,0.562,0.874,1.839,0,2.4l-10.746,6.895
		c-0.898,0.898-2.435,0.263-2.435-1.009V17.914C644.374,16.644,645.91,16.007,646.809,16.905z"/>
</g>
</svg>
