<?xml version="1.0" encoding="utf-8"?>
<!-- Generator: Adobe Illustrator 16.0.0, SVG Export Plug-In . SVG Version: 6.00 Build 0)  -->
<!DOCTYPE svg PUBLIC "-//W3C//DTD SVG 1.1//EN" "http://www.w3.org/Graphics/SVG/1.1/DTD/svg11.dtd">
<svg version="1.1" id="Layer_1" xmlns="http://www.w3.org/2000/svg" xmlns:xlink="http://www.w3.org/1999/xlink" x="0px" y="0px"
	 width="30px" height="30px" viewBox="0 0 30 30" enable-background="new 0 0 30 30" xml:space="preserve">
<g>
	<g>
		<path fill="#211F1F" d="M5.89,17.897c-3.248,0-5.89-2.641-5.89-5.889s2.642-5.89,5.89-5.89c3.247,0,5.889,2.642,5.889,5.89
			c0,1.076-0.291,2.125-0.845,3.038c-0.494,0.819-1.188,1.513-2.007,2.006C8.017,17.606,6.966,17.897,5.89,17.897z M5.89,6.491
			c-3.042,0-5.517,2.475-5.517,5.517s2.475,5.517,5.517,5.517c1.007,0,1.991-0.273,2.845-0.791c0.767-0.461,1.417-1.111,1.881-1.879
			c0.517-0.855,0.791-1.839,0.791-2.846C11.406,8.966,8.931,6.491,5.89,6.491z"/>
		<path fill="#211F1F" d="M15.556,23.882l-7.024-7.024l0.205-0.123c0.766-0.463,1.417-1.112,1.88-1.88l0.124-0.204l7.023,7.026
			L15.556,23.882z M9.128,16.927l6.428,6.429l1.682-1.68l-6.429-6.429C10.369,15.914,9.793,16.488,9.128,16.927z"/>
	</g>
</g>
</svg>
