<?xml version="1.0" encoding="utf-8"?>
<!-- Generator: Adobe Illustrator 16.0.0, SVG Export Plug-In . SVG Version: 6.00 Build 0)  -->
<!DOCTYPE svg PUBLIC "-//W3C//DTD SVG 1.1//EN" "http://www.w3.org/Graphics/SVG/1.1/DTD/svg11.dtd">
<svg version="1.1" id="Layer_1" xmlns="http://www.w3.org/2000/svg" xmlns:xlink="http://www.w3.org/1999/xlink" x="0px" y="0px"
	 width="40px" height="50px" viewBox="5 0 40 50" enable-background="new 5 0 40 50" xml:space="preserve">
<g id="XMLID_13_">
	<g>
		<polygon fill="#FF9510" points="7.779,5.189 13.16,2.043 21.438,6.689 15.555,9.718 		"/>
		<polygon fill="#FF9510" points="31.756,12.481 25.902,15.774 17.476,10.835 23.359,7.806 23.33,7.748 		"/>
		<path fill="#211F1F" d="M10.469,17.862v6.851l8.219,4.675v-6.852L10.469,17.862z M15.998,12.158v6.704l8.84,5.028v-6.586
			l-1.508-0.882L15.998,12.158z M34.711,29.506v-6.41l-8.012-4.675v6.557L34.711,29.506z M34.711,38.504v-6.822l-3.842-2.176v6.822
			L34.711,38.504z M29.006,35.24v-6.822l-8.456-4.792v6.822L29.006,35.24z M36.604,31.711v6.969l6.533-2.764v-7.293L36.604,31.711z
			 M6.892,13.687l7.243,4.116v-6.763L6.892,6.836V13.687z M43.137,26.537v-6.675l-6.533,3.264v6.527L43.137,26.537z M27.794,16.863
			l7.893,4.616l1.035-0.5l5.381-2.705l-8.426-4.705L27.794,16.863z M25.902,15.774l5.854-3.293L23.33,7.748l0.03,0.059l-5.883,3.029
			L25.902,15.774z M13.16,2.043l-5.38,3.146l7.775,4.528l5.883-3.058L13.16,2.043z M35.954,49.941c-0.03,0-0.03,0-0.06,0.029
			C35.806,50,35.746,50,35.687,50c-0.088,0-0.177,0-0.265-0.029c-0.029,0-0.06-0.029-0.09-0.029
			c-0.059-0.029-0.089-0.029-0.147-0.059L5.473,32.389C5.177,32.211,5,31.918,5,31.594V5.189C5,5.16,5,5.131,5,5.131
			c0-0.059,0-0.118,0.03-0.176c0-0.03,0.029-0.059,0.029-0.088s0.029-0.088,0.06-0.118C5.148,4.719,5.148,4.689,5.177,4.66
			c0.03-0.029,0.06-0.088,0.089-0.118c0.03-0.029,0.059-0.029,0.089-0.059s0.059-0.059,0.118-0.088l7.185-4.263
			c0.295-0.176,0.65-0.176,0.946,0l30.924,17.377l0,0c0,0,0,0,0.029,0c0.029,0.029,0.088,0.059,0.118,0.088
			c0.029,0.029,0.059,0.029,0.059,0.059c0.059,0.059,0.089,0.088,0.118,0.147l0.03,0.03c0.029,0.059,0.06,0.147,0.089,0.235
			c0,0.03,0,0.03,0,0.059c0,0.059,0.029,0.118,0.029,0.176v27.111c0,0.381-0.208,0.705-0.562,0.852l-8.396,3.646
			C36.013,49.941,35.954,49.941,35.954,49.941z M6.892,15.833v6.821l1.714,0.971v-6.822L6.892,15.833z M43.137,44.826v-6.852
			l-6.533,2.764v6.908L43.137,44.826z M34.711,47.412v-6.793l-9.252-5.262v6.615L34.711,47.412z M23.566,40.855v-6.557l-7.982-4.527
			v6.408L23.566,40.855z M13.721,35.062v-6.381l-6.829-3.88v6.234L13.721,35.062z"/>
		<polygon fill="#FF9510" points="33.677,13.569 42.073,18.274 36.722,20.979 35.687,21.479 27.794,16.863 		"/>
	</g>
</g>
</svg>
