<?xml version="1.0" encoding="utf-8"?>
<!-- Generator: Adobe Illustrator 16.0.0, SVG Export Plug-In . SVG Version: 6.00 Build 0)  -->
<!DOCTYPE svg PUBLIC "-//W3C//DTD SVG 1.1//EN" "http://www.w3.org/Graphics/SVG/1.1/DTD/svg11.dtd">
<svg version="1.1" id="Layer_1" xmlns="http://www.w3.org/2000/svg" xmlns:xlink="http://www.w3.org/1999/xlink" x="0px" y="0px"
	 width="48px" height="50px" viewBox="1 0 48 50" enable-background="new 1 0 48 50" xml:space="preserve">
<g>
	<g id="XMLID_10_">
		<g>
			<polygon fill="#FF9510" points="41.852,5.067 42.113,23.899 39.691,25.635 39.4,6.773 			"/>
			<polygon fill="#FF9510" points="39.953,4.008 37.939,5.361 11.913,3.507 14.043,1.948 			"/>
			<path fill="#211F1F" d="M30.297,11.305l5.221,6.738l-6.738,4.208c-0.148,0.088-0.322,0.147-0.496,0.147
				c-0.322,0-0.645-0.176-0.818-0.441c-0.291-0.441-0.145-1.03,0.322-1.324l4.93-3.09l-3.908-5.061
				c-0.322-0.413-0.264-1,0.174-1.324S29.975,10.893,30.297,11.305z"/>
			<path fill="#211F1F" d="M49,23.164v13.831c0,0.354-0.205,0.676-0.496,0.854l-11.701,6.267v-0.029l-10.826,5.798
				C25.832,49.971,25.686,50,25.539,50c-0.146,0-0.292-0.029-0.408-0.088l-11.934-5.974l0,0L1.525,38.17
				C1.204,37.994,1,37.67,1,37.288v-13.83c0-0.089,0-0.177,0.029-0.236c0-0.03,0.029-0.03,0.029-0.059
				c0.029-0.059,0.029-0.118,0.059-0.176c0.029-0.029,0.029-0.059,0.058-0.088c0.029-0.029,0.058-0.088,0.087-0.118
				s0.058-0.029,0.087-0.059c0.029-0.03,0.059-0.059,0.087-0.059h0.029c0,0,0.029,0,0.029-0.029l6.799-3.62V4.302c0,0,0,0,0-0.029
				V4.243c0-0.088,0.029-0.147,0.029-0.206c0-0.029,0-0.029,0.029-0.059C8.382,3.89,8.411,3.832,8.47,3.772c0,0,0-0.029,0.029-0.029
				c0.029-0.029,0.059-0.088,0.088-0.118c0.029,0,0.029-0.029,0.058-0.029c0,0,0-0.03,0.029-0.03l4.552-3.384
				c0.175-0.118,0.379-0.206,0.613-0.176l29.003,2.325c0.029,0,0.029,0,0.059,0c0.059,0,0.117,0.029,0.176,0.029
				c0.029,0,0.059,0.029,0.117,0.029h0.029c0.029,0.029,0.059,0.059,0.115,0.088c0.029,0.029,0.059,0.029,0.088,0.059
				c0.059,0.059,0.088,0.118,0.146,0.177c0,0,0.029,0.029,0.029,0.059c0.059,0.089,0.088,0.177,0.117,0.265l0,0
				c0,0.029,0,0.029,0,0.059c0,0.059,0.029,0.118,0.029,0.147l0.203,16.743l4.494,2.266c0,0,0.029,0,0.029,0.029h0.029
				c0.029,0.029,0.059,0.029,0.088,0.059c0.029,0.029,0.059,0.029,0.088,0.059c0.029,0.03,0.057,0.06,0.086,0.118
				c0.029,0.029,0.029,0.059,0.059,0.088c0.029,0.029,0.029,0.088,0.059,0.147c0,0.029,0.029,0.059,0.029,0.088
				c0,0.059,0.029,0.118,0.029,0.176C48.969,23.105,49,23.134,49,23.164L49,23.164L49,23.164z M47.104,36.436V24.753l-8.93,4.796
				v11.683L47.104,36.436z M44.01,24.252l1.955-1.06l-1.984-1L44.01,24.252z M42.113,23.899L41.852,5.067l-2.48,1.707l0.291,18.861
				L42.113,23.899z M37.939,5.361l2.014-1.324l-25.91-2.089l-2.13,1.559L37.939,5.361z M10.191,24.959l27.398,1.618
				c-0.029-1.795-0.088-5.708-0.146-9.593c-0.027-2.648-0.057-5.326-0.086-7.327c0-1-0.029-1.824-0.029-2.413l0,0L10.191,5.302
				V24.959z M36.248,42.201V30.55l-9.805,5.237V47.44L36.248,42.201z M25.481,34.168l8.755-4.707l-2.598-1.295L19.09,27.431
				l-3.209,1.942L25.481,34.168z M24.547,47.528V35.816l-9.716-4.854v11.711L24.547,47.528z M13.838,28.344l1.896-1.149
				l-4.727-0.293l2.802,1.412C13.81,28.344,13.838,28.344,13.838,28.344z M12.613,41.555V29.873l-9.716-4.855v11.712L12.613,41.555z
				 M8.324,25.576v-4.414l-4.29,2.266L8.324,25.576z"/>
			<path fill="#211F1F" d="M18.274,20.692c-0.175,0.177-0.409,0.265-0.642,0.265c-0.263,0-0.496-0.088-0.7-0.294l-5.398-5.856
				l6.798-5.12c0.409-0.323,1.021-0.235,1.313,0.206c0.321,0.412,0.234,1.03-0.204,1.325l-5.106,3.825l3.968,4.297
				C18.682,19.75,18.682,20.339,18.274,20.692z"/>
			<path fill="#211F1F" d="M27.494,10.775c0.408,0.324,0.496,0.912,0.176,1.325l-6.653,8.827c-0.175,0.265-0.467,0.382-0.759,0.382
				c-0.204,0-0.408-0.059-0.583-0.206c-0.408-0.324-0.496-0.913-0.175-1.324l6.653-8.798C26.473,10.54,27.086,10.452,27.494,10.775z
				"/>
		</g>
	</g>
</g>
</svg>
