<?xml version="1.0" encoding="utf-8"?>
<!-- Generator: Adobe Illustrator 16.0.0, SVG Export Plug-In . SVG Version: 6.00 Build 0)  -->
<!DOCTYPE svg PUBLIC "-//W3C//DTD SVG 1.1//EN" "http://www.w3.org/Graphics/SVG/1.1/DTD/svg11.dtd">
<svg version="1.1" id="Layer_1" xmlns="http://www.w3.org/2000/svg" xmlns:xlink="http://www.w3.org/1999/xlink" x="0px" y="0px"
	 width="50px" height="34px" viewBox="0 0 50 34" enable-background="new 0 0 50 34" xml:space="preserve">
<g id="XMLID_3_">
	<g>
		<path fill="#FF9510" d="M31.42,19.58l-2.709-1.501c-0.303-0.164-0.677-0.047-0.84,0.258c-0.164,0.305-0.047,0.68,0.257,0.846
			l2.147,1.172l-4.553,2.438v-6.777l5.719-3.048v6.613L31.42,19.58L31.42,19.58z"/>
		<path fill="#FF9510" d="M18.581,13.108l5.859,2.932v6.799l-5.648-2.812l2.497-1.782c0.281-0.188,0.35-0.586,0.141-0.868
			c-0.21-0.282-0.584-0.353-0.887-0.142l-1.984,1.407v-5.534H18.581z"/>
		<path fill="#221F1F" d="M16.48,21.456l-5.649-2.861l-5.672,3.002l5.719,2.86L16.48,21.456z M7.726,7.667l5.626-3.001L7.68,1.806
			L2.008,4.807L7.726,7.667z M40.896,24.435l5.625-3.002l-5.672-2.838l-5.673,3.002L40.896,24.435z M48.6,12.005V5.229l-5.719,3.048
			v6.776L48.6,12.005z M25.7,22.792l4.552-2.438l-2.146-1.174c-0.305-0.164-0.422-0.539-0.258-0.845s0.562-0.422,0.84-0.258
			l2.709,1.501v-6.613l-5.72,3.048v6.777L25.7,22.792L25.7,22.792z M17.227,29.265v-6.775l-5.719,3.048v6.776L17.227,29.265z
			 M40.289,25.536l-5.857-2.932v6.801l5.857,2.931V25.536z M7.096,15.569V8.77L1.261,5.838v6.801L7.096,15.569z M24.439,16.04
			l-5.859-2.932v5.487l1.984-1.407c0.28-0.211,0.677-0.141,0.887,0.142c0.187,0.281,0.141,0.68-0.14,0.867l-2.497,1.783l5.648,2.812
			V16.04H24.439z M10.248,32.358V25.56l-5.859-2.933v6.801L10.248,32.358z M41.619,15.1V8.301L35.762,5.37v5.486l2.403-1.267
			c0.303-0.164,0.677-0.046,0.841,0.259c0.163,0.305,0.047,0.68-0.258,0.844l-2.87,1.523L41.619,15.1z M47.852,4.197l-5.67-2.86
			l-5.674,3.001L42.227,7.2L47.852,4.197z M14.076,11.373V5.699L8.357,8.747v6.775l5.416-2.883l-2.661-1.479
			c-0.304-0.164-0.42-0.562-0.257-0.867c0.164-0.305,0.561-0.422,0.864-0.258L14.076,11.373z M25.047,14.938l5.625-3.002L25,9.075
			l-5.672,3.001L25.047,14.938z M49.509,12.944l-6.978,3.728c-0.094,0.047-0.188,0.07-0.305,0.07c-0.094,0-0.188-0.023-0.281-0.07
			l-0.42-0.211l-6.674-3.33c-0.117-0.046-0.188-0.14-0.259-0.233l-1.938,1.03v6.214c0,0.047,0,0.094-0.022,0.117l1.167,0.635
			l6.746-3.565c0.188-0.094,0.396-0.094,0.584,0l7.025,3.542c0,0,0.022,0,0.022,0.023H48.2c0.022,0.022,0.047,0.022,0.047,0.045
			c0.022,0.023,0.047,0.023,0.047,0.047c0.022,0.023,0.047,0.048,0.069,0.07c0.023,0.023,0.023,0.023,0.048,0.047
			c0.024,0.024,0.022,0.07,0.046,0.094c0,0.023,0.023,0.048,0.023,0.07c0,0.049,0.022,0.071,0.022,0.118c0,0.023,0,0.023,0,0.048
			l0,0l0,0v8.207c0,0.233-0.14,0.444-0.327,0.562l-6.979,3.729c-0.092,0.047-0.184,0.07-0.301,0.07c-0.095,0-0.188-0.023-0.28-0.07
			L33.52,30.39c-0.211-0.117-0.351-0.328-0.351-0.562v-7.854l-1.61-0.894l-6.208,3.307c-0.093,0.048-0.187,0.07-0.303,0.07
			c-0.094,0-0.187-0.022-0.281-0.07l-6.302-3.118l0,0c0,0.022,0.023,0.07,0.023,0.117c0,0.023,0,0.023,0,0.047l0,0l0,0v8.207
			c0,0.234-0.141,0.445-0.328,0.562l-6.979,3.729c-0.092,0.047-0.185,0.07-0.303,0.07c-0.093,0-0.187-0.023-0.28-0.07L3.501,30.39
			c-0.21-0.117-0.35-0.328-0.35-0.562V21.62c0-0.047,0-0.117,0.023-0.164c0-0.023,0.023-0.023,0.023-0.047
			c0.023-0.047,0.023-0.07,0.046-0.118c0-0.022,0.023-0.022,0.047-0.047s0.046-0.048,0.07-0.07s0.023-0.022,0.046-0.047
			c0.023-0.022,0.047-0.022,0.07-0.047h0.023c0,0,0.023,0,0.023-0.022l7.049-3.729c0.187-0.094,0.397-0.094,0.583,0l5.416,2.768
			c0.046-0.07,0.093-0.117,0.164-0.188l0.583-0.422v-4.901l-2.241-1.243c-0.023,0.023-0.047,0.048-0.07,0.048l-6.976,3.75
			c-0.093,0.047-0.187,0.07-0.304,0.07c-0.093,0-0.186-0.023-0.28-0.07L0.35,13.6C0.14,13.483,0,13.272,0,13.038V4.831
			c0-0.047,0-0.117,0.023-0.164c0-0.023,0.023-0.023,0.023-0.047c0.023-0.047,0.023-0.07,0.046-0.118
			c0-0.023,0.023-0.023,0.047-0.046s0.047-0.047,0.07-0.07c0.023-0.023,0.023-0.023,0.047-0.047c0.023-0.023,0.046-0.023,0.07-0.047
			H0.35c0,0,0.023,0,0.023-0.023l7.003-3.728c0.187-0.094,0.396-0.094,0.583,0l7.05,3.54c0,0,0.022,0,0.022,0.023
			c0,0,0.023,0,0.023,0.023c0.023,0.023,0.023,0.023,0.047,0.047s0.047,0.023,0.047,0.047c0.023,0.023,0.046,0.047,0.07,0.071
			c0.024,0.024,0.023,0.047,0.047,0.047c0.023,0.023,0.023,0.07,0.047,0.094c0,0.023,0.023,0.047,0.023,0.07
			c0,0.047,0.023,0.071,0.023,0.118c0,0.023,0,0.023,0,0.047l0,0l0,0v7.41l1.983,1.103v-1.056c0-0.047,0-0.117,0.023-0.165
			c0-0.023,0.023-0.023,0.023-0.047c0.023-0.046,0.023-0.07,0.047-0.117c0.023-0.023,0.023-0.023,0.046-0.047
			s0.047-0.047,0.07-0.071c0.023-0.024,0.047-0.022,0.047-0.047c0.023-0.022,0.046-0.022,0.07-0.047h0.023c0,0,0,0,0.023-0.022
			l7.049-3.729c0.187-0.094,0.397-0.094,0.584,0l7.048,3.541c0,0,0.023,0,0.023,0.023h0.023c0.021,0.023,0.021,0.023,0.045,0.047
			c0.025,0.022,0.048,0.022,0.048,0.047c0.022,0.023,0.047,0.046,0.069,0.07c0.023,0.023,0.023,0.022,0.047,0.047
			c0.024,0.023,0.023,0.069,0.048,0.094c0,0.023,0.022,0.047,0.022,0.07c0,0.047,0.023,0.07,0.023,0.117c0,0.023,0,0.023,0,0.047
			l0,0l0,0v0.562l1.844-0.984V4.362c0-0.047,0-0.118,0.023-0.165c0-0.023,0.022-0.023,0.022-0.047
			c0.023-0.047,0.023-0.07,0.048-0.117c0.022-0.023,0.022-0.023,0.047-0.047c0.022-0.024,0.047-0.047,0.069-0.071
			s0.022-0.023,0.048-0.047c0.021-0.023,0.045-0.023,0.067-0.047h0.022c0,0,0,0,0.023-0.023l7.05-3.728
			c0.187-0.094,0.397-0.094,0.584,0l7.05,3.541c0,0,0.022,0,0.022,0.023h0.022c0.023,0.023,0.023,0.023,0.047,0.047
			c0.024,0.024,0.048,0.023,0.048,0.047c0.022,0.023,0.046,0.047,0.069,0.07c0.022,0.023,0.022,0.023,0.047,0.047
			c0.023,0.024,0.022,0.07,0.047,0.094c0,0.023,0.022,0.047,0.022,0.071c0,0.047,0.023,0.07,0.023,0.117c0,0.023,0,0.023,0,0.047
			l0,0l0,0v8.207C49.859,12.616,49.721,12.827,49.509,12.944z M41.525,32.313l5.721-3.049v-6.775l-5.721,3.048V32.313z"/>
		<polygon fill="#FF9510" points="25,9.075 30.672,11.936 25.047,14.938 19.328,12.077 		"/>
	</g>
</g>
</svg>
