<?xml version="1.0" encoding="utf-8"?>
<!-- Generator: Adobe Illustrator 16.0.0, SVG Export Plug-In . SVG Version: 6.00 Build 0)  -->
<!DOCTYPE svg PUBLIC "-//W3C//DTD SVG 1.1//EN" "http://www.w3.org/Graphics/SVG/1.1/DTD/svg11.dtd">
<svg version="1.1" id="Layer_1" xmlns="http://www.w3.org/2000/svg" xmlns:xlink="http://www.w3.org/1999/xlink" x="0px" y="0px"
	 width="43px" height="48px" viewBox="3.5 1 43 48" enable-background="new 3.5 1 43 48" xml:space="preserve">
<g id="XMLID_12_">
	<g>
		<path fill="#221F1F" d="M13.773,36.439v-9.742l-8.395-4.158v9.74L13.773,36.439z M34.465,46.586v-9.74l-8.482-4.188v9.741
			L34.465,46.586z M34.465,14.078v-1.134l-8.482-4.187v0.232v9.508l0.088,0.029l8.424,4.158v-8.606H34.465z M44.65,18.265V8.553
			l-8.307,4.361v1.164v8.549L44.65,18.265z M24.133,29.75v-9.741l-8.512-4.187v9.741L24.133,29.75z M44.65,30.042v-9.684
			l-8.307,4.362v9.711L44.65,30.042z M25.982,30.303l8.482,4.188v-9.741l-8.482-4.188V30.303z M24.133,41.527v-9.742l-8.394-4.128
			v9.74L24.133,41.527z M44.65,42.166v-9.712l-8.307,4.362v9.712L44.65,42.166z M24.133,17.974v-7.502l-7.396,3.838l1.467,0.727
			L24.133,17.974z M27.098,7.273l8.307,4.1l8.16-4.303l-8.219-4.1L27.098,7.273z M46.5,30.942v11.776c0,0.35-0.176,0.641-0.5,0.814
			l-10.154,5.351C35.697,48.941,35.551,49,35.404,49s-0.293-0.029-0.41-0.087l-10.156-5.001c-0.059-0.029-0.118-0.029-0.176-0.059
			l-10.361-5.09c-0.029,0-0.058-0.028-0.088-0.058l-10.184-5.03C3.705,33.531,3.5,33.21,3.5,32.862V21.056
			c0-0.087,0-0.174,0.029-0.233c0-0.029,0.03-0.029,0.03-0.058c0.029-0.059,0.029-0.117,0.058-0.175
			c0.029-0.029,0.029-0.058,0.059-0.087c0.029-0.03,0.058-0.087,0.088-0.117c0.029-0.029,0.058-0.029,0.087-0.058
			c0.03-0.029,0.059-0.058,0.088-0.058h0.029c0,0,0,0,0.03-0.029l9.745-5.089v-0.814c0-0.087,0-0.175,0.03-0.233
			c0-0.029,0.029-0.029,0.029-0.058c0.029-0.058,0.029-0.117,0.059-0.174c0.03-0.029,0.03-0.058,0.059-0.087
			c0.029-0.029,0.06-0.087,0.088-0.117c0.029-0.029,0.059-0.029,0.088-0.058c0.029-0.029,0.059-0.059,0.088-0.059h0.029
			c0,0,0,0,0.03-0.029l9.862-5.146V7.273c0-0.087,0-0.175,0.029-0.233c0-0.029,0-0.029,0.029-0.058
			c0.03-0.058,0.03-0.117,0.059-0.174c0-0.029,0.029-0.059,0.059-0.087s0.059-0.087,0.088-0.116
			c0.029-0.029,0.058-0.058,0.088-0.058c0.029-0.029,0.058-0.059,0.087-0.059h0.029c0,0,0.029,0,0.029-0.029l10.245-5.35
			c0.264-0.146,0.586-0.146,0.85,0l10.244,5.088c0,0,0.029,0,0.029,0.029H46c0.029,0.029,0.059,0.059,0.088,0.059
			c0.029,0.029,0.059,0.029,0.088,0.058c0.029,0.029,0.061,0.058,0.088,0.116c0.031,0.029,0.031,0.058,0.061,0.087
			c0.029,0.029,0.029,0.087,0.059,0.146c0,0.029,0.029,0.058,0.029,0.087c0,0.058,0.029,0.117,0.029,0.174c0,0.029,0,0.029,0,0.058
			l0,0l0,0v11.777v11.777c0,0.058,0,0.115-0.029,0.174c0,0.028,0,0.058,0,0.087C46.471,30.885,46.5,30.913,46.5,30.942L46.5,30.942
			L46.5,30.942z M13.773,24.633v-7.386l-7.279,3.81L13.773,24.633z"/>
		<polygon fill="#FF9510" points="15.739,37.397 15.739,27.657 24.133,31.785 24.133,41.527 		"/>
	</g>
</g>
</svg>
