<?xml version="1.0" encoding="utf-8"?>
<!-- Generator: Adobe Illustrator 16.0.0, SVG Export Plug-In . SVG Version: 6.00 Build 0)  -->
<!DOCTYPE svg PUBLIC "-//W3C//DTD SVG 1.1//EN" "http://www.w3.org/Graphics/SVG/1.1/DTD/svg11.dtd">
<svg version="1.1" id="Layer_1" xmlns="http://www.w3.org/2000/svg" xmlns:xlink="http://www.w3.org/1999/xlink" x="0px" y="0px"
	 width="36px" height="47px" viewBox="7 1.5 36 47" enable-background="new 7 1.5 36 47" xml:space="preserve">
<g id="XMLID_1_">
	<g>
		<polygon fill="#FF9510" points="8.754,29.234 8.754,21.316 24.167,25.099 24.167,33.046 		"/>
		<path fill="#221F1F" d="M24.167,46.418v-7.947L8.754,34.659v7.947L24.167,46.418z M41.012,29.058v-7.946l-15.09,3.959v7.946
			L41.012,29.058z M24.167,19.674v-7.947L8.754,7.915v7.946L24.167,19.674z M11.475,20.144l13.569,3.343l13.277-3.49l-3.48-0.85
			l-9.562,2.521c-0.088,0.029-0.146,0.029-0.234,0.029c-0.058,0-0.146,0-0.204-0.029l-9.826-2.404L11.475,20.144z M25.043,10.114
			l13.277-3.49L24.869,3.281l-13.394,3.49L25.043,10.114z M7.673,32.694l3.743-0.967l-3.743-0.939C7.263,30.7,7,30.349,7,29.938
			v-9.765l0,0c0-0.059,0-0.117,0.029-0.177c0-0.028,0-0.028,0-0.058c0-0.059,0.029-0.089,0.059-0.146c0,0,0-0.029,0.029-0.029
			c0.029-0.06,0.059-0.089,0.088-0.147l0.029-0.029c0.029-0.029,0.059-0.059,0.117-0.088c0,0,0-0.029,0.029-0.029h0.029
			c0.03-0.029,0.088-0.059,0.146-0.088c0,0,0,0,0.029,0c0.058-0.029,0.088-0.029,0.146-0.059l3.744-0.968l-3.802-0.938
			C7.263,17.328,7,16.977,7,16.565V6.801l0,0c0-0.059,0-0.117,0.029-0.177c0-0.028,0-0.028,0-0.058c0-0.06,0.029-0.089,0.059-0.146
			c0,0,0-0.03,0.029-0.03c0.029-0.059,0.059-0.088,0.088-0.146l0.029-0.029c0.029-0.029,0.059-0.059,0.117-0.117
			c0,0,0,0,0.029-0.029h0.029c0.03-0.029,0.088-0.059,0.146-0.088c0,0,0,0,0.029,0C7.643,5.95,7.673,5.95,7.731,5.921l16.933-4.399
			c0.146-0.028,0.293-0.028,0.439,0l16.991,4.224c0.057,0,0.086,0.029,0.146,0.059c0,0,0,0,0.029,0
			c0.057,0.029,0.088,0.059,0.146,0.088c0,0,0,0,0.029,0c0,0,0,0,0.029,0.029c0.027,0.029,0.086,0.059,0.115,0.117
			c0,0,0,0,0.029,0.029c0.029,0.059,0.059,0.088,0.088,0.146c0,0,0,0.029,0.029,0.029c0.029,0.059,0.029,0.088,0.059,0.146
			c0,0.03,0,0.03,0,0.059c0,0.059,0.029,0.118,0.029,0.176l0,0v9.766c0,0.411-0.264,0.763-0.645,0.851l-3.713,0.997l3.713,0.909
			c0.061,0,0.09,0.029,0.146,0.059c0,0,0,0,0.031,0c0.059,0.029,0.088,0.059,0.145,0.088c0,0,0,0,0.029,0c0,0,0,0,0.029,0.029
			s0.088,0.059,0.117,0.117c0,0,0,0,0.029,0.029c0.029,0.059,0.059,0.088,0.088,0.146c0,0,0,0.029,0.029,0.059
			s0.029,0.089,0.059,0.118c0,0.028,0,0.028,0,0.058c0,0.06,0.029,0.118,0.029,0.177l0,0v9.765c0,0.41-0.264,0.762-0.643,0.851
			l-3.715,0.968l3.715,0.908c0.057,0,0.088,0.029,0.146,0.059c0,0,0,0,0.029,0c0.057,0.03,0.086,0.06,0.145,0.089c0,0,0,0,0.029,0
			c0,0,0,0,0.029,0.029c0.029,0.03,0.088,0.059,0.117,0.117c0,0,0,0,0.029,0.029c0.029,0.059,0.059,0.088,0.088,0.146
			c0,0,0,0.029,0.029,0.059s0.029,0.088,0.059,0.146c0,0,0,0.03,0,0.06c0,0.059,0.029,0.117,0.029,0.175l0,0l0,0v9.767
			c0,0.41-0.264,0.762-0.643,0.849l-16.846,4.429C25.424,48.5,25.366,48.5,25.278,48.5c-0.059,0-0.146,0-0.205-0.029l-17.4-4.311
			C7.263,44.072,7,43.721,7,43.31v-9.766l0,0c0-0.059,0-0.117,0.029-0.175c0,0,0-0.029,0-0.059c0-0.059,0.029-0.088,0.059-0.118
			c0,0,0-0.029,0.029-0.029c0.029-0.059,0.059-0.117,0.088-0.146l0.029-0.029c0.029-0.029,0.059-0.059,0.117-0.088
			c0,0,0,0,0.029-0.029h0.029c0.059-0.029,0.088-0.059,0.146-0.088c0,0,0,0,0.029,0C7.556,32.725,7.614,32.694,7.673,32.694z
			 M41.012,15.686V7.739l-15.09,3.959v7.946L41.012,15.686z M24.167,33.046v-7.947L8.754,21.316v7.947L24.167,33.046z M41.012,42.43
			v-7.947l-15.09,3.959v7.947L41.012,42.43z M11.475,33.515l13.569,3.344l13.277-3.489l-3.48-0.852l-9.562,2.522
			c-0.088,0.028-0.146,0.028-0.234,0.028c-0.058,0-0.146,0-0.204-0.028l-9.826-2.404L11.475,33.515z"/>
		<path fill="#FF9510" d="M25.043,23.486l-13.569-3.343l3.539-0.909l9.826,2.404c0.058,0.029,0.146,0.029,0.204,0.029
			c0.088,0,0.146,0,0.234-0.029l9.562-2.521l3.48,0.851L25.043,23.486z"/>
		<polygon fill="#FF9510" points="41.012,21.111 41.012,29.058 25.922,33.017 25.922,25.07 		"/>
	</g>
</g>
</svg>
