<?xml version="1.0" encoding="utf-8"?>
<!-- Generator: Adobe Illustrator 16.0.0, SVG Export Plug-In . SVG Version: 6.00 Build 0)  -->
<!DOCTYPE svg PUBLIC "-//W3C//DTD SVG 1.1//EN" "http://www.w3.org/Graphics/SVG/1.1/DTD/svg11.dtd">
<svg version="1.1" id="Layer_1" xmlns="http://www.w3.org/2000/svg" xmlns:xlink="http://www.w3.org/1999/xlink" x="0px" y="0px"
	 width="50px" height="34px" viewBox="0 8 50 34" enable-background="new 0 8 50 34" xml:space="preserve">
<g>
	<g id="XMLID_8_">
		<g>
			<path fill="#FF9510" d="M18.88,40.13c0-2.783,0-9.456,0-11.029l1.395-0.935v10.986L18.88,40.13z"/>
			<polygon fill="#FF9510" points="47.991,29.399 42.411,32.395 36.702,29.548 42.347,26.573 			"/>
			<path fill="#221F1F" d="M6.406,36.41c0.232,0.256,0.232,0.66-0.021,0.894c-0.126,0.106-0.275,0.169-0.444,0.169
				c-0.169,0-0.338-0.062-0.465-0.19l-2.981-3.209L2.558,33.5l0.232-0.17l3.531-2.635c0.274-0.213,0.676-0.149,0.887,0.128
				c0.212,0.274,0.148,0.68-0.126,0.892l-2.981,2.231L6.406,36.41z"/>
			<path fill="#221F1F" d="M11.945,32.226l-3.954,5.227c-0.127,0.17-0.317,0.255-0.507,0.255c-0.127,0-0.275-0.041-0.381-0.127
				c-0.275-0.213-0.338-0.615-0.127-0.893l3.954-5.229c0.211-0.275,0.613-0.339,0.887-0.127
				C12.114,31.545,12.178,31.948,11.945,32.226z"/>
			<path fill="#221F1F" d="M13.51,31.652l2.875,3.695L16.3,35.923l-0.254,0.148l-3.467,2.146c-0.106,0.063-0.211,0.084-0.338,0.084
				c-0.211,0-0.423-0.105-0.529-0.297c-0.19-0.298-0.084-0.701,0.211-0.871l2.875-1.786l-2.283-2.91
				c-0.211-0.277-0.169-0.68,0.105-0.893S13.298,31.375,13.51,31.652z"/>
			<path fill="#221F1F" d="M32.432,15.522c-0.359-1.955-2.072-3.357-4.039-3.357c-1.035,0-2.028,0.404-2.812,1.105l-0.211,0.191
				l-0.592-0.064l-0.169-0.234c-0.613-0.85-1.586-1.36-2.622-1.36c-1.776,0-3.234,1.445-3.234,3.251c0,0.106,0,0.212,0.021,0.297
				l0.063,0.637l-0.634,0.064c-1.734,0.17-3.002,1.658-2.918,3.4c0.021,0.404,0.106,0.786,0.275,1.147
				c0.549,1.169,1.754,1.934,3.065,1.934H33.13c1.775,0,3.233-1.445,3.233-3.251c0-1.785-1.438-3.251-3.233-3.251
				c-0.021,0-0.043,0-0.063,0h-0.529L32.432,15.522z M1.269,39.726l16.342,0.957l-0.105-11.326l-6.385-0.446l-9.852-0.68V39.726z
				 M2.558,27.041l8.879,0.615l6.385,0.447l1.036-0.681l-15.054-1.19L2.558,27.041z M18.88,29.101c0,1.573,0,8.246,0,11.029
				l1.395-0.978V28.166L18.88,29.101z M0,40.3V27.55c0-0.17,0.084-0.361,0.211-0.468c0.021-0.021,0.042-0.041,0.063-0.063
				c0.021-0.021,0.021-0.021,0.042-0.043l2.96-1.933c0.127-0.084,0.275-0.127,0.423-0.106l6.554,0.531
				c0.042-0.042,0.084-0.085,0.126-0.127l4.567-3.272c-0.232-0.276-0.423-0.595-0.571-0.914c-0.233-0.51-0.36-1.062-0.402-1.615
				c0-0.085,0-0.148,0-0.233l0,0c0-0.043,0-0.106,0-0.17c0-0.021,0-0.021,0-0.043c0.042-0.935,0.317-3.314,0.782-4.186
				c0.783-1.487,1.966-2.444,3.214-2.635c0.211-0.701,0.507-1.338,0.888-1.912C19.831,8.872,21.29,8,22.728,8
				c1.226,0,2.389,0.51,3.234,1.381c0.909-0.68,2.029-1.041,3.172-1.041c2.409,0,4.503,1.615,5.18,3.91
				c2.282,0.212,4.08,2.146,4.08,4.505v0.085l-0.021,0.085l-0.824,3.188c-0.296,1.572-1.396,2.847-2.854,3.399l4.503,3.273
				l2.833-1.509c0.191-0.085,0.403-0.085,0.593,0l6.998,3.527c0.063,0.043,0.126,0.085,0.19,0.148
				c0.021,0.021,0.021,0.043,0.042,0.043c0.021,0.021,0.021,0.043,0.042,0.063C49.958,29.166,50,29.293,50,29.42v8.16
				c0,0.233-0.147,0.468-0.338,0.573l-6.935,3.719c-0.084,0.044-0.189,0.064-0.295,0.064c-0.086,0-0.17-0.021-0.254-0.043
				c0,0-0.021,0-0.021-0.021l-7.084-3.527c-0.211-0.105-0.359-0.34-0.359-0.595v-2.805H21.564v4.526
				c0,0.212-0.105,0.425-0.274,0.531l-2.622,1.869c-0.021,0-0.021,0.021-0.042,0.021C18.52,41.957,18.393,42,18.267,42
				c-0.021,0-0.021,0-0.042,0l-17.59-1.041C0.275,40.938,0,40.64,0,40.3z M48.753,37.198V30.44l-5.708,3.06v6.758L48.753,37.198z
				 M42.411,32.395l5.602-2.995l-5.645-2.849l-5.646,2.997L42.411,32.395z M41.775,40.278V33.5l-5.834-2.91v6.777L41.775,40.278z
				 M35.032,28.995l2.918-1.552l-5.032-3.655H18.626c-0.994,0-1.945-0.318-2.706-0.871l-3.742,2.699l8.731,0.701
				c0.084,0,0.19,0.042,0.254,0.085c0,0,0,0,0.021,0c0.021,0,0.021,0.021,0.042,0.021c0,0,0,0,0.021,0.021
				c0.169,0.128,0.296,0.318,0.296,0.53v6.694h13.15v-4.08c0-0.128,0.042-0.233,0.106-0.34l0.021-0.021
				c0.021-0.021,0.042-0.062,0.063-0.085C34.926,29.08,34.968,29.038,35.032,28.995z M37.02,17.031l0.084-0.382
				c-0.042-1.615-1.268-2.954-2.833-3.145l-0.359,1.317C35.266,15.076,36.363,15.905,37.02,17.031z M32.981,13.504l0.17-0.638
				c-0.425-1.891-2.094-3.23-4.018-3.23c-0.995,0-1.945,0.361-2.706,1.02l-0.211,0.701c0.676-0.297,1.395-0.446,2.134-0.446
				C30.296,10.89,32.029,11.931,32.981,13.504z M24.842,11.591l0.359-1.169c-0.634-0.722-1.522-1.147-2.474-1.147
				c-1.015,0-2.072,0.659-2.812,1.764c0.613-0.318,1.311-0.51,2.05-0.51C23.023,10.55,24.038,10.912,24.842,11.591z M17.632,13.865
				L17.632,13.865c0-0.063,0-0.127,0-0.191c-0.655,0.297-1.29,0.935-1.755,1.806c-0.021,0.042-0.042,0.106-0.084,0.17
				c0.486-0.361,1.057-0.638,1.67-0.765C17.505,14.524,17.547,14.184,17.632,13.865z"/>
		</g>
	</g>
</g>
</svg>
