<?xml version="1.0" encoding="utf-8"?>
<!-- Generator: Adobe Illustrator 16.0.0, SVG Export Plug-In . SVG Version: 6.00 Build 0)  -->
<!DOCTYPE svg PUBLIC "-//W3C//DTD SVG 1.1//EN" "http://www.w3.org/Graphics/SVG/1.1/DTD/svg11.dtd">
<svg version="1.1" id="Layer_1" xmlns="http://www.w3.org/2000/svg" xmlns:xlink="http://www.w3.org/1999/xlink" x="0px" y="0px"
	 width="50px" height="46px" viewBox="0 2 50 46" enable-background="new 0 2 50 46" xml:space="preserve">
<g id="XMLID_5_">
	<g>
		<polygon fill="#FF9510" points="47.457,24.479 33.992,32.455 31.559,31.211 45.449,23.263 		"/>
		<polygon fill="#FF9510" points="34.877,45.594 34.877,33.914 48.287,25.967 48.287,37.591 		"/>
		<polygon fill="#FF9510" points="9.716,16.559 9.716,13.503 23.822,21.128 23.822,24.02 		"/>
		<polygon fill="#FF9510" points="25.508,23.993 25.508,21.128 28.506,19.505 34.02,16.531 39.186,13.72 39.186,16.559 
			28.828,22.209 		"/>
		<polygon fill="#FF9510" points="4.523,23.263 18.442,31.211 15.979,32.455 2.542,24.479 		"/>
		<polygon fill="#FF9510" points="33.164,33.969 33.164,45.675 30.594,44.27 30.594,32.644 		"/>
		<polygon fill="#FF9510" points="38.33,12.232 30.701,16.369 24.652,19.641 10.626,12.044 24.464,3.879 		"/>
		<polygon fill="#FF9510" points="19.379,32.644 19.379,44.27 16.81,45.675 16.81,33.969 		"/>
		<polygon fill="#FF9510" points="1.713,37.591 1.713,25.967 15.096,33.914 15.096,45.594 		"/>
		<path fill="#211F1F" d="M18.442,31.211L4.523,23.263l-2.008,1.189l13.464,7.976L18.442,31.211z M19.379,44.27V32.644l-2.569,1.325
			v11.706L19.379,44.27z M34.877,45.594l13.41-8.003V25.967l-13.41,7.947V45.594z M15.096,45.594v-11.68L1.713,25.967v11.624
			L15.096,45.594z M24.25,29.454l-5.755-2.893v2.703l2.168,1.244l0,0c0,0,0,0,0.026,0c0.027,0.026,0.08,0.054,0.107,0.081
			c0.027,0.026,0.054,0.026,0.054,0.053c0.054,0.056,0.081,0.082,0.107,0.136l0.027,0.027c0.027,0.054,0.081,0.135,0.081,0.217
			c0,0,0,0.026,0,0.054c0,0.054,0.027,0.108,0.027,0.162v3.325l3.158,1.567V29.454z M33.992,32.455l13.465-7.976l-2.008-1.189
			l-13.891,7.921L33.992,32.455z M25.081,26.209c-0.054,0.027-0.081,0.027-0.134,0.055c-0.027,0-0.054,0.027-0.054,0.027
			c-0.08,0.026-0.133,0.026-0.214,0.026c-0.08,0-0.134,0-0.214-0.026c-0.027,0-0.053-0.027-0.08-0.027
			c-0.027-0.027-0.08-0.027-0.107-0.055l-3.373-1.783l-1.419,0.757l5.568,2.784l5.46-2.946l-1.713-0.865L25.081,26.209z
			 M29.336,30.509l2.195-1.244v-2.839l-5.594,3.001v6.704l2.971-1.622v-3.271c0-0.054,0-0.108,0.027-0.162c0-0.027,0-0.027,0-0.054
			c0.025-0.082,0.053-0.136,0.08-0.217l0.025-0.027c0.027-0.054,0.08-0.108,0.107-0.136c0.027-0.026,0.055-0.026,0.055-0.053
			c0.025-0.027,0.053-0.055,0.105-0.081C29.309,30.509,29.309,30.509,29.336,30.509C29.309,30.509,29.336,30.509,29.336,30.509z
			 M23.822,24.02v-2.892L9.716,13.503v3.028L23.822,24.02z M25.508,21.128v2.865l3.32-1.812l10.357-5.65V13.72l-5.166,2.812
			l-5.541,3.001L25.508,21.128z M30.701,16.369l7.629-4.137L24.464,3.879l-13.838,8.165l14.052,7.597L30.701,16.369z M33.164,25.128
			v3.164l11.885-6.759c0.268-0.163,0.588-0.163,0.855,0l3.668,2.189c0.027,0.027,0.08,0.054,0.107,0.081
			c0.025,0.027,0.053,0.027,0.08,0.054c0.027,0.027,0.053,0.082,0.08,0.108c0.027,0.027,0.027,0.054,0.053,0.081
			c0.027,0.027,0.027,0.081,0.055,0.136c0,0.027,0.027,0.054,0.027,0.081C50,24.317,50,24.372,50,24.426c0,0.026,0,0.054,0,0.054
			v13.626c0,0.298-0.16,0.594-0.428,0.729l-15.098,9.03l0,0c-0.053,0.026-0.105,0.054-0.133,0.054s-0.055,0.026-0.08,0.026
			c-0.08,0.027-0.162,0.027-0.215,0.027c-0.08,0-0.135,0-0.215-0.027c-0.027,0-0.053-0.026-0.08-0.026
			c-0.027-0.027-0.08-0.027-0.133-0.054l-4.283-2.325c-0.268-0.163-0.455-0.433-0.455-0.757v-8.354l-3.399,1.838
			c-0.107,0.055-0.268,0.108-0.401,0.108c-0.134,0-0.241-0.027-0.375-0.08l-3.64-1.812v8.326c0,0.325-0.161,0.595-0.455,0.757
			l-4.283,2.325c-0.027,0.027-0.081,0.027-0.134,0.054c-0.026,0-0.053,0.027-0.08,0.027C16.033,48,15.979,48,15.899,48
			c-0.081,0-0.161,0-0.214-0.027c-0.026,0-0.053-0.027-0.08-0.027c-0.054-0.026-0.107-0.026-0.134-0.054l0,0L0.428,38.835
			C0.161,38.673,0,38.403,0,38.105V24.479c0-0.027,0-0.054,0-0.054c0-0.054,0-0.108,0.027-0.162c0-0.027,0.027-0.054,0.027-0.081
			c0.027-0.055,0.027-0.081,0.054-0.136c0-0.027,0.026-0.054,0.053-0.081c0.027-0.026,0.054-0.081,0.08-0.108
			c0.027-0.026,0.054-0.026,0.08-0.054c0.027-0.027,0.054-0.054,0.107-0.081l3.667-2.189c0.268-0.163,0.589-0.163,0.856,0
			l11.884,6.785V25.21c0-0.162,0.054-0.325,0.134-0.46l0.027-0.027c0.027-0.027,0.053-0.081,0.08-0.107
			c0.054-0.081,0.134-0.136,0.214-0.163l1.847-0.973l-10.653-5.65C8.19,17.693,8.03,17.396,8.03,17.072V12.07
			c0-0.054,0-0.081,0.027-0.135c0-0.027,0-0.054,0-0.081c0-0.055,0.027-0.108,0.054-0.162c0-0.027,0-0.027,0.026-0.055
			c0.027-0.054,0.081-0.135,0.134-0.188c0,0,0.027-0.027,0.054-0.027c0.053-0.027,0.08-0.081,0.133-0.108l0,0l0,0l15.578-9.192
			c0.268-0.161,0.589-0.161,0.856,0l15.578,9.408c0,0,0,0,0.027,0.027c0.053,0.027,0.107,0.081,0.16,0.136
			c0,0.027,0.027,0.027,0.027,0.054c0.027,0.027,0.08,0.081,0.107,0.136c0,0.026,0.027,0.054,0.027,0.08
			c0.025,0.055,0.053,0.082,0.053,0.136c0,0.027,0,0.055,0,0.081c0,0.054,0.027,0.081,0.027,0.136v4.784
			c0,0.324-0.162,0.622-0.455,0.757l-9.852,5.354l2.035,1.027c0.053,0.027,0.08,0.027,0.133,0.054
			c0.107,0.055,0.16,0.136,0.242,0.217c0.107,0.135,0.188,0.324,0.188,0.514C33.191,25.048,33.191,25.074,33.164,25.128z
			 M33.164,45.675V33.969l-2.57-1.325V44.27L33.164,45.675z"/>
	</g>
</g>
</svg>
