<?xml version="1.0" encoding="utf-8"?>
<!-- Generator: Adobe Illustrator 16.0.0, SVG Export Plug-In . SVG Version: 6.00 Build 0)  -->
<!DOCTYPE svg PUBLIC "-//W3C//DTD SVG 1.1//EN" "http://www.w3.org/Graphics/SVG/1.1/DTD/svg11.dtd">
<svg version="1.1" id="Layer_1" xmlns="http://www.w3.org/2000/svg" xmlns:xlink="http://www.w3.org/1999/xlink" x="0px" y="0px"
	 width="40px" height="50px" viewBox="0 0 40 50" enable-background="new 0 0 40 50" xml:space="preserve">
<g id="XMLID_14_">
	<g>
		<polygon fill="#FF9510" points="28.887,7.261 28.887,16.149 23.598,18.917 21.277,20.152 21.277,11.264 		"/>
		<path fill="#211F1F" d="M19.346,20.211v-8.918l-0.563-0.295l-0.148-0.088l-7.073-3.444v8.918l5.082,2.502L19.346,20.211z
			 M20.625,37.872l1.932-1.09l5.022-2.854l-8.411-4.119l-6.746,3.795L20.625,37.872z M20.12,28.157l4.487,2.18l4.102,2.002
			c0.029-1.854,0.089-3.974,0.118-5.712v-3.148c-0.416-0.207-1.099-0.559-2.169-1.119c-0.862-0.441-1.812-0.941-2.766-1.413
			l-3.091,1.619c-0.147,0.059-0.296,0.118-0.444,0.118c-0.061,0-0.149,0-0.209-0.03v5.503L20.12,28.157L20.12,28.157z M2.972,17.503
			l7.37,4.121l3.417-2.031l-3.596-1.766c-0.327-0.147-0.535-0.5-0.535-0.854V14.03L2.972,17.503z M20.297,9.645l7.459-3.915
			l-7.52-3.768l-7.519,3.944L20.297,9.645z M21.277,11.264v8.889l2.349-1.236l5.261-2.767V7.261L21.277,11.264z M39.971,17.503
			l-0.297,21.074c0,0.323-0.179,0.647-0.475,0.825L20.714,49.881c-0.149,0.088-0.297,0.117-0.476,0.117
			c-0.178,0-0.327-0.029-0.475-0.117L0.476,38.725C0.179,38.548,0,38.254,0,37.9V17.475l0,0l0,0c0-0.029,0-0.059,0-0.088
			c0-0.059,0-0.088,0.03-0.147c0-0.029,0.03-0.059,0.03-0.118c0.03-0.029,0.03-0.088,0.06-0.118c0.029-0.029,0.029-0.059,0.06-0.088
			c0.029-0.03,0.059-0.088,0.089-0.118c0.03-0.03,0.06-0.059,0.089-0.059c0.029-0.029,0.06-0.059,0.089-0.059c0,0,0,0,0.03,0l0,0
			l9.153-4.768V5.937c0-0.088,0-0.177,0.03-0.235c0-0.029,0-0.029,0.029-0.059c0.03-0.059,0.03-0.118,0.089-0.176
			c0-0.029,0.03-0.059,0.06-0.059c0.029-0.03,0.06-0.089,0.089-0.118c0.03-0.03,0.06-0.03,0.089-0.059
			c0.029-0.029,0.06-0.059,0.089-0.088h0.03c0,0,0.03,0,0.03-0.029l9.599-5.003c0.269-0.147,0.594-0.147,0.862,0l9.599,4.768
			c0,0,0.029,0,0.029,0.03h0.029c0.029,0.029,0.06,0.029,0.089,0.059c0.03,0.029,0.06,0.029,0.089,0.059
			c0.031,0.03,0.061,0.088,0.09,0.118c0.03,0.03,0.03,0.059,0.061,0.088c0.029,0.059,0.029,0.088,0.061,0.147
			c0,0.03,0.029,0.06,0.029,0.089c0,0.059,0.029,0.118,0.029,0.176c0,0.03,0,0.059,0,0.059l0,0l0,0v6.476l8.646,4.503
			c0,0,0,0,0.03,0c0,0,0,0,0.028,0c0.029,0.03,0.061,0.059,0.09,0.059c0.029,0.029,0.061,0.059,0.119,0.088
			c0.029,0.029,0.061,0.059,0.09,0.088c0.029,0.029,0.06,0.059,0.089,0.088c0.028,0.029,0.028,0.059,0.06,0.118
			c0,0.029,0.029,0.059,0.059,0.118c0,0.029,0,0.088,0.031,0.118c0,0.029,0,0.059,0.028,0.118
			C39.971,17.475,39.939,17.475,39.971,17.503C39.939,17.475,39.971,17.475,39.971,17.503z M18.188,21.743l-1.932-0.941
			l-4.933,2.501v1.413l-0.03,7.386l6.924-3.885v-6.474H18.188z M21.635,39.52l-0.148,7.74l16.285-9.242l0.268-18.866l-7.311,4.269
			c0.03,0.706,0.03,1.854,0,3.826l0.03,6.594c0,0.354-0.179,0.646-0.477,0.822L23.566,38.4L21.635,39.52z M30.282,17.562
			l-4.369,2.295c0.536,0.294,1.101,0.56,1.575,0.825c0.832,0.441,1.695,0.883,2.199,1.118l7.34-4.268l-6.239-3.237v2.443
			C30.788,17.062,30.609,17.387,30.282,17.562z M9.421,34.074c0-0.029-0.03-0.059-0.03-0.088c0,0,0,0,0-0.029s0-0.088-0.03-0.117
			c0-0.029,0-0.06,0-0.089l0,0l0,0l0.06-10.448l-7.519-4.209v18.277l17.653,10.184l0.148-7.977l-9.866-5.004c0,0,0,0-0.03,0
			c0,0,0,0-0.03,0c-0.03-0.029-0.06-0.059-0.089-0.059c-0.029-0.029-0.06-0.029-0.089-0.06c0,0,0,0,0-0.028
			c-0.03-0.029-0.06-0.06-0.089-0.089c-0.03-0.028-0.06-0.06-0.06-0.089c0,0,0,0,0-0.029C9.45,34.162,9.45,34.133,9.421,34.074z"/>
		<polygon fill="#FF9510" points="27.757,5.702 20.297,9.645 12.719,5.908 20.238,1.962 		"/>
		<polygon fill="#FF9510" points="18.782,10.999 19.346,11.293 19.346,20.211 16.672,18.888 11.561,16.386 11.561,7.467 
			18.633,10.94 		"/>
	</g>
</g>
</svg>
