<?xml version="1.0" encoding="utf-8"?>
<!-- Generator: Adobe Illustrator 16.0.0, SVG Export Plug-In . SVG Version: 6.00 Build 0)  -->
<!DOCTYPE svg PUBLIC "-//W3C//DTD SVG 1.1//EN" "http://www.w3.org/Graphics/SVG/1.1/DTD/svg11.dtd">
<svg version="1.1" id="Layer_1" xmlns="http://www.w3.org/2000/svg" xmlns:xlink="http://www.w3.org/1999/xlink" x="0px" y="0px"
	 width="50px" height="36px" viewBox="0 7 50 36" enable-background="new 0 7 50 36" xml:space="preserve">
<g>
	<g id="XMLID_11_">
		<g>
			<path fill="#221F1F" d="M42.154,7l2.754,4.756h-2.055v8.967c0,0.393-0.306,0.698-0.699,0.698c-0.371,0-0.699-0.305-0.699-0.698
				v-8.967h-2.054L42.154,7z"/>
			<polygon fill="#FF9510" points="47.814,30.279 42.221,33.248 36.539,30.432 42.177,27.465 			"/>
			<path fill="#221F1F" d="M8.523,11.756v8.967c0,0.393-0.306,0.698-0.7,0.698c-0.371,0-0.699-0.305-0.699-0.698v-8.967H5.07
				L7.845,7l2.753,4.756H8.523z"/>
			<path fill="#221F1F" d="M25,7l2.754,4.756h-2.055v8.967c0,0.393-0.306,0.698-0.699,0.698s-0.699-0.305-0.699-0.698v-8.967h-2.054
				L25,7z"/>
			<path fill="#221F1F" d="M50,30.258v8.291c0,0.262-0.131,0.48-0.371,0.611l-7.081,3.752C42.439,42.957,42.33,43,42.221,43
				s-0.219-0.021-0.307-0.064l-7.211-3.58c-0.24-0.107-0.394-0.348-0.394-0.611v-8.289c0-0.066,0-0.133,0.021-0.176
				c0-0.021,0-0.021,0.022-0.043c0.021-0.045,0.021-0.086,0.043-0.131c0-0.021,0.022-0.043,0.044-0.064
				c0.022-0.021,0.044-0.066,0.065-0.088s0.044-0.043,0.066-0.043c0.021-0.023,0.043-0.045,0.064-0.045h0.022
				c0,0,0.022,0,0.022-0.021l7.146-3.752c0.196-0.109,0.437-0.109,0.634,0l7.146,3.578c0,0,0.022,0,0.022,0.021h0.021
				c0.021,0.021,0.043,0.021,0.065,0.043s0.044,0.021,0.065,0.045c0.021,0.021,0.044,0.043,0.066,0.086
				c0.021,0.021,0.021,0.045,0.043,0.066s0.021,0.064,0.044,0.109c0,0.021,0.021,0.043,0.021,0.064c0,0.045,0.022,0.086,0.022,0.131
				C50,30.236,50,30.236,50,30.258L50,30.258L50,30.258z M48.623,38.135v-6.721l-5.703,3.033v6.721L48.623,38.135z M42.221,33.248
				l5.594-2.969l-5.638-2.814l-5.638,2.967L42.221,33.248z M41.543,41.189v-6.742l-5.835-2.902v6.742L41.543,41.189z"/>
			<polygon fill="#FF9510" points="30.639,30.279 25.065,33.248 19.362,30.432 25,27.465 			"/>
			<path fill="#221F1F" d="M32.846,30.258v8.291c0,0.262-0.131,0.48-0.372,0.611l-7.08,3.752C25.284,42.957,25.175,43,25.065,43
				s-0.218-0.021-0.306-0.064l-7.212-3.58c-0.24-0.107-0.393-0.348-0.393-0.611v-8.289c0-0.066,0-0.133,0.022-0.176
				c0-0.021,0.021-0.021,0.021-0.043c0.022-0.045,0.022-0.086,0.044-0.131c0.022-0.021,0.022-0.043,0.043-0.064
				c0.022-0.021,0.044-0.066,0.066-0.088c0.021-0.021,0.043-0.043,0.065-0.043c0.022-0.023,0.043-0.045,0.065-0.045
				c0,0,0.022,0,0.022-0.021c0,0,0,0,0.022,0l7.146-3.752c0.196-0.109,0.437-0.109,0.634,0l7.146,3.578c0,0,0,0,0.021,0.021h0.022
				c0.021,0.021,0.043,0.021,0.064,0.043c0.022,0.021,0.045,0.021,0.066,0.045c0.021,0.021,0.043,0.043,0.065,0.086
				c0.022,0.021,0.044,0.045,0.044,0.066c0.021,0.021,0.043,0.064,0.043,0.109c0,0.021,0.022,0.043,0.022,0.064
				c0.021,0.045,0.021,0.086,0.021,0.131C32.846,30.236,32.846,30.236,32.846,30.258L32.846,30.258L32.846,30.258z M31.469,38.135
				v-6.721l-5.704,3.033v6.721L31.469,38.135z M25.065,33.248l5.595-2.969l-5.638-2.814l-5.638,2.967L25.065,33.248z M24.388,41.189
				v-6.742l-5.835-2.902v6.742L24.388,41.189z"/>
			<polygon fill="#FF9510" points="7.889,33.248 2.207,30.432 7.845,27.465 13.483,30.279 			"/>
			<path fill="#221F1F" d="M7.889,33.248l5.594-2.969l-5.638-2.814l-5.638,2.967L7.889,33.248z M7.605,42.936l-7.211-3.58
				C0.153,39.248,0,39.008,0,38.744v-8.289c0-0.066,0-0.133,0.022-0.176c0-0.021,0-0.021,0.022-0.043
				c0.021-0.045,0.021-0.086,0.043-0.131c0-0.021,0.022-0.043,0.043-0.064c0.022-0.021,0.044-0.066,0.066-0.088
				S0.24,29.91,0.262,29.91c0.022-0.023,0.044-0.045,0.065-0.045H0.35c0,0,0.022,0,0.022-0.021l7.146-3.752
				c0.197-0.109,0.437-0.109,0.634,0l7.146,3.555c0,0,0.021,0,0.021,0.023h0.022c0.022,0.021,0.044,0.021,0.065,0.043
				c0.022,0.021,0.044,0.021,0.066,0.043c0.022,0.023,0.043,0.045,0.065,0.088c0.022,0.021,0.022,0.043,0.043,0.066
				c0.022,0.021,0.022,0.064,0.044,0.109c0,0.021,0.022,0.043,0.022,0.064c0,0.045,0.022,0.088,0.022,0.131c0,0.021,0,0.043,0,0.043
				l0,0l0,0v8.291c0,0.262-0.131,0.48-0.372,0.611l-7.081,3.752C8.107,42.957,7.998,43,7.889,43C7.802,43,7.692,42.979,7.605,42.936
				z M7.211,41.189v-6.742l-5.834-2.881v6.742L7.211,41.189z M8.61,34.447v6.721l5.704-3.033v-6.721L8.61,34.447z"/>
		</g>
	</g>
</g>
</svg>
