<?xml version="1.0" encoding="utf-8"?>
<!-- Generator: Adobe Illustrator 16.0.0, SVG Export Plug-In . SVG Version: 6.00 Build 0)  -->
<!DOCTYPE svg PUBLIC "-//W3C//DTD SVG 1.1//EN" "http://www.w3.org/Graphics/SVG/1.1/DTD/svg11.dtd">
<svg version="1.1" id="Layer_1" xmlns="http://www.w3.org/2000/svg" xmlns:xlink="http://www.w3.org/1999/xlink" x="0px" y="0px"
	 width="50px" height="34px" viewBox="0 8 50 34" enable-background="new 0 8 50 34" xml:space="preserve">
<g id="XMLID_2_">
	<g>
		<polygon fill="#FF9510" points="37.67,38.084 37.67,32.9 42.607,35.164 42.607,40.35 		"/>
		<path fill="#211F1F" d="M6.096,40.303v-5.139l-4.822-2.377v5.162L6.096,40.303z M30.526,38.084V32.9l-4.935,2.264v5.186
			L30.526,38.084z M23.908,10.853c-0.841-1.019-2.093-1.63-3.412-1.63c-1.41,0-2.843,0.906-3.844,2.399
			c-0.137,0.227-0.273,0.453-0.41,0.679c0.91-0.657,2.047-1.042,3.253-1.042c1.433,0,2.775,0.543,3.822,1.494L23.908,10.853z
			 M28.252,27.898h-2.547v0.678l2.547,1.225V27.898z M19.472,32.787v5.162l4.823,2.354v-5.139L19.472,32.787z M11.465,31.904
			l-4.686-2.264l-4.686,2.15l4.641,2.264L11.465,31.904z M29.663,31.904l-4.686-2.264l-4.686,2.15l4.64,2.264L29.663,31.904z
			 M47.884,31.791l-4.687-2.15l-4.686,2.264l4.708,2.15L47.884,31.791z M48.726,32.787l-4.846,2.377v5.162l4.823-2.355v-5.184
			H48.726z M39.376,18.956c-0.045-2.264-1.797-4.097-4.026-4.278l-0.569,2.083c1.935,0.271,3.55,1.517,4.322,3.214L39.376,18.956z
			 M14.581,17.96c-2.274,0.204-3.98,2.083-3.98,4.347c0,0.475,0.068,0.951,0.228,1.403c0.614,1.789,2.274,2.987,4.163,2.987h18.995
			c2.411,0,4.39-1.969,4.39-4.368s-1.979-4.369-4.39-4.369c-0.046,0-0.068,0-0.091,0l-0.523,0.023l-0.092-0.521
			c-0.5-2.603-2.798-4.482-5.458-4.482c-1.412,0-2.753,0.521-3.8,1.494l-0.523,0.476l-0.409-0.589
			c-0.819-1.154-2.161-1.856-3.594-1.856c-2.411,0-4.39,1.969-4.39,4.369c0,0.136,0,0.25,0.022,0.408l0.068,0.611L14.581,17.96z
			 M24.431,28.51v-0.611h-2.525v1.766L24.431,28.51z M7.37,35.164v5.186l4.937-2.266V32.9L7.37,35.164z M34.236,14.044
			c-0.547-2.536-2.799-4.369-5.415-4.369c-1.365,0-2.662,0.498-3.685,1.403l-0.41,1.404c0.956-0.498,2.024-0.747,3.116-0.747
			c2.594,0,4.913,1.471,6.052,3.689L34.236,14.044z M37.67,32.9v5.162l4.938,2.264v-5.162L37.67,32.9z M18.198,31.77
			c0-0.023,0-0.023,0-0.047c0-0.045,0-0.09,0.023-0.135c0-0.023,0.022-0.045,0.022-0.068c0.023-0.045,0.023-0.068,0.046-0.09
			c0.022-0.023,0.022-0.047,0.045-0.068c0.022-0.023,0.045-0.045,0.068-0.068c0.022-0.021,0.045-0.021,0.045-0.045
			c0.022,0,0.022-0.021,0.045-0.045c0.023,0,0.023-0.023,0.045-0.023l0.023-0.021l2.07-0.951v-2.309h-5.641
			c-2.434,0-4.572-1.54-5.346-3.826c-0.205-0.566-0.296-1.177-0.296-1.788c0-2.716,1.911-4.98,4.527-5.501
			c0-0.521,0.091-1.041,0.227-1.517h-0.045c0.205-1.63,0.728-3.146,1.547-4.346C16.856,9.087,18.676,8,20.496,8
			c1.592,0,3.116,0.68,4.163,1.856c1.184-0.905,2.64-1.404,4.141-1.404c3.094,0,5.777,2.083,6.551,5.003
			c2.936,0.204,5.255,2.626,5.255,5.591v0.068l-1.092,4.21l0,0c-0.479,2.604-2.775,4.573-5.527,4.573h-4.481v2.512l1.911,0.928
			l0.022,0.023c0.022,0,0.022,0,0.046,0.021c0.021,0.023,0.021,0.023,0.045,0.047c0.023,0.021,0.045,0.021,0.045,0.045
			c0.023,0.021,0.047,0.045,0.068,0.068c0.023,0.021,0.023,0.021,0.046,0.045c0.022,0.045,0.046,0.066,0.046,0.113
			c0,0.021,0.022,0.021,0.022,0.045c0.022,0.045,0.022,0.113,0.022,0.158v2.988h4.618v-2.988c0-0.068,0-0.113,0.022-0.158
			c0-0.023,0.023-0.023,0.023-0.045c0.021-0.047,0.021-0.068,0.044-0.113c0-0.023,0.023-0.045,0.046-0.045
			c0.022-0.023,0.046-0.047,0.068-0.068c0.022-0.023,0.046-0.023,0.046-0.045c0.022-0.023,0.022-0.023,0.045-0.047
			c0.023,0,0.023,0,0.046-0.021l0.022-0.023l6.165-2.965c0.182-0.09,0.363-0.09,0.546,0l6.164,2.83l0.023,0.023
			c0.022,0,0.022,0,0.045,0.021c0.023,0,0.023,0.023,0.046,0.045c0.022,0.023,0.046,0.023,0.046,0.045
			c0.022,0.023,0.045,0.045,0.068,0.068c0.022,0.023,0.022,0.045,0.045,0.068c0.023,0.021,0.023,0.068,0.045,0.09
			c0,0.023,0.023,0.047,0.023,0.068C50,31.678,50,31.723,50,31.77c0,0.021,0,0.021,0,0.045l0,0l0,0v6.564
			c0,0.248-0.137,0.453-0.365,0.564l-6.096,2.988C43.448,41.979,43.356,42,43.266,42s-0.183-0.021-0.272-0.068l-6.21-2.828
			c-0.229-0.092-0.364-0.316-0.364-0.566v-2.332h-4.617v2.332c0,0.25-0.137,0.475-0.364,0.566l-6.21,2.828
			C25.136,41.979,25.045,42,24.954,42s-0.205-0.021-0.273-0.068l-6.096-2.988c-0.228-0.111-0.364-0.316-0.364-0.564v-2.174h-4.641
			v2.332c0,0.25-0.137,0.475-0.364,0.566l-6.21,2.828C6.915,41.979,6.824,42,6.733,42s-0.205-0.021-0.273-0.068l-6.096-3.01
			C0.137,38.809,0,38.605,0,38.355v-6.564l0,0l0,0c0-0.021,0-0.021,0-0.045c0-0.045,0-0.092,0.023-0.135
			c0-0.023,0.022-0.047,0.022-0.068c0.023-0.047,0.023-0.068,0.045-0.092c0.023-0.021,0.023-0.045,0.046-0.068
			c0.022-0.021,0.045-0.045,0.068-0.066c0.022-0.023,0.045-0.023,0.045-0.045c0.022,0,0.022-0.023,0.045-0.045
			c0.022,0,0.022-0.023,0.045-0.023l0.023-0.023l6.165-2.807c0.182-0.09,0.363-0.066,0.545,0l6.165,2.988l0.023,0.021
			c0.023,0,0.023,0,0.045,0.023c0.023,0.023,0.023,0.023,0.046,0.045c0.022,0.023,0.045,0.023,0.045,0.045
			c0.022,0.023,0.045,0.047,0.068,0.068c0.022,0.023,0.022,0.023,0.045,0.047c0.022,0.043,0.045,0.066,0.045,0.111
			c0,0.023,0.023,0.023,0.023,0.047c0.022,0.045,0.022,0.113,0.022,0.158v2.986h4.595V31.77
			C18.198,31.791,18.198,31.791,18.198,31.77L18.198,31.77z"/>
		<polygon fill="#FF9510" points="25.568,40.35 25.568,35.164 30.526,32.9 30.526,38.084 		"/>
		<polygon fill="#FF9510" points="43.88,35.164 48.726,32.787 48.726,37.949 43.88,40.303 		"/>
		<polygon fill="#FF9510" points="7.37,40.35 7.37,35.164 12.329,32.9 12.329,38.084 		"/>
		<polygon fill="#FF9510" points="24.977,29.641 29.663,31.904 24.954,34.055 20.313,31.791 		"/>
		<polygon fill="#FF9510" points="19.472,37.949 19.472,32.787 24.294,35.164 24.294,40.303 		"/>
		<polygon fill="#FF9510" points="6.096,35.164 6.096,40.303 1.274,37.949 1.274,32.787 		"/>
		<polygon fill="#FF9510" points="6.779,29.641 11.465,31.904 6.756,34.055 2.116,31.791 		"/>
		<polygon fill="#FF9510" points="43.197,29.641 47.884,31.791 43.243,34.055 38.512,31.904 		"/>
	</g>
</g>
</svg>
