<?xml version="1.0" encoding="utf-8"?>
<!-- Generator: Adobe Illustrator 16.0.0, SVG Export Plug-In . SVG Version: 6.00 Build 0)  -->
<!DOCTYPE svg PUBLIC "-//W3C//DTD SVG 1.1//EN" "http://www.w3.org/Graphics/SVG/1.1/DTD/svg11.dtd">
<svg version="1.1" id="Layer_1" xmlns="http://www.w3.org/2000/svg" xmlns:xlink="http://www.w3.org/1999/xlink" x="0px" y="0px"
	 width="50px" height="35px" viewBox="0 0 50 35" enable-background="new 0 0 50 35" xml:space="preserve">
<g id="XMLID_9_">
	<g>
		<path fill="#FF9510" d="M17.626,13.102H4.297c-1.46,0-2.711-1.009-2.941-2.349c-0.042-0.206-0.042-0.391-0.042-0.597
			c0,0,0,0,0-0.021c0.021-0.597,0.229-1.153,0.584-1.627c0.479-0.638,1.23-1.03,2.023-1.112c0.167-0.021,0.334-0.103,0.438-0.227
			S4.526,6.86,4.505,6.695c0-0.083-0.021-0.185-0.021-0.268c0-1.566,1.293-2.843,2.878-2.843c0.939,0,1.815,0.453,2.357,1.216
			c0.104,0.144,0.292,0.247,0.479,0.268s0.375-0.041,0.521-0.165c0.688-0.639,1.585-0.989,2.524-0.989
			c1.773,0,3.317,1.257,3.65,2.966c0.062,0.309,0.334,0.536,0.647,0.536c0.021,0,0.062,0,0.083,0c1.585,0,2.879,1.277,2.879,2.843
			C20.505,11.825,19.232,13.102,17.626,13.102z"/>
		<path fill="#FF9510" d="M3.358,5.315C3.275,5.604,3.212,5.913,3.191,6.221C2.753,6.324,2.315,6.51,1.94,6.757
			C2.315,6.098,2.837,5.583,3.358,5.315z"/>
		<path fill="#FF9510" d="M18.752,5.15c1.377,0.206,2.42,1.339,2.461,2.74l-0.042,0.144c-0.605-0.947-1.564-1.627-2.712-1.854
			L18.752,5.15z"/>
		<path fill="#FF9510" d="M17.459,4.841c-0.897-1.36-2.461-2.246-4.193-2.246c-0.646,0-1.272,0.124-1.856,0.35l0.146-0.453
			c0.667-0.577,1.523-0.886,2.399-0.886c1.731,0,3.233,1.195,3.608,2.843L17.459,4.841z"/>
		<path fill="#221F1F" d="M45.953,26.802c1.146,0.228,2.107,0.906,2.712,1.833l0.042-0.144c-0.042-1.401-1.105-2.534-2.462-2.74
			L45.953,26.802z M1.898,8.529c-0.375,0.474-0.563,1.03-0.584,1.627c0,0,0,0,0,0.021c0,0.186,0,0.392,0.042,0.599
			c0.229,1.339,1.502,2.349,2.941,2.349h13.329c1.585,0,2.879-1.278,2.879-2.843c0-1.566-1.293-2.843-2.879-2.843
			c-0.021,0-0.042,0-0.083,0c-0.313,0-0.584-0.227-0.647-0.536c-0.333-1.73-1.856-2.966-3.65-2.966c-0.938,0-1.835,0.35-2.524,0.988
			c-0.146,0.124-0.333,0.186-0.521,0.165S9.847,4.965,9.722,4.821C9.18,4.059,8.304,3.606,7.365,3.606
			c-1.585,0-2.878,1.277-2.878,2.843c0,0.083,0,0.186,0.021,0.268c0.021,0.165-0.042,0.35-0.146,0.474S4.091,7.418,3.924,7.418
			C3.129,7.478,2.399,7.89,1.898,8.529z M11.64,26.864v6.18l5.298-2.78v-1.011h-2.357c-0.354,0-0.667-0.288-0.667-0.659
			c0-0.351,0.292-0.658,0.667-0.658h2.357v-3.873L11.64,26.864z M4.902,24.206v6.201l5.423,2.657v-6.2L4.902,24.206z M11.64,20.786
			v2.286c0,0.351-0.292,0.658-0.667,0.658c-0.355,0-0.667-0.287-0.667-0.658v-2.348l-4.652,2.41l5.319,2.615l5.194-2.721
			L11.64,20.786z M18.46,6.18c1.147,0.227,2.107,0.907,2.712,1.854l0.042-0.144c-0.042-1.401-1.105-2.534-2.461-2.74L18.46,6.18z
			 M47.998,30.88c0-1.563-1.294-2.842-2.879-2.842h-0.062c0,0,0,0-0.021,0c-0.312,0-0.584-0.228-0.646-0.536
			c-0.334-1.729-1.856-2.966-3.629-2.966c-0.939,0-1.837,0.35-2.525,0.987c-0.146,0.123-0.334,0.187-0.521,0.166
			c-0.188-0.021-0.354-0.125-0.479-0.27c-0.543-0.762-1.418-1.215-2.356-1.215c-1.586,0-2.879,1.275-2.879,2.843
			c0,0.082,0,0.187,0.021,0.269c0.021,0.164-0.041,0.35-0.146,0.474s-0.271,0.228-0.438,0.228c-0.793,0.082-1.522,0.475-2.022,1.111
			c-0.376,0.475-0.563,1.051-0.584,1.628c0,0,0,0,0,0.021c0,0.207,0,0.393,0.041,0.6c0.229,1.338,1.502,2.348,2.94,2.348h13.328
			C46.704,33.723,47.998,32.445,47.998,30.88z M11.64,14.4v4.924l6.237,3.09c0,0,0,0,0.021,0.021h0.021
			c0.021,0.02,0.042,0.041,0.062,0.041c0.021,0.021,0.042,0.021,0.062,0.041c0.02,0.02,0.042,0.062,0.062,0.082
			c0.021,0.021,0.042,0.041,0.042,0.062c0.021,0.04,0.021,0.062,0.042,0.103c0,0.021,0.021,0.043,0.021,0.062
			c0,0.041,0.021,0.081,0.021,0.123c0,0.021,0,0.041,0,0.041l0,0l0,0v4.943h9.324c0.084,0,0.188,0.021,0.252,0.041
			c0.104-0.453,0.229-0.865,0.375-1.133c0.709-1.318,1.793-2.184,2.94-2.39c0.188-0.617,0.459-1.194,0.813-1.688
			c0.918-1.359,2.272-2.164,3.629-2.164c1.127,0,2.19,0.453,2.983,1.217c0.834-0.599,1.854-0.907,2.897-0.907
			c2.232,0,4.173,1.442,4.799,3.522C48.352,24.659,50,26.41,50,28.553c0,0.062,0,0.104-0.021,0.165l-0.75,2.904
			C48.854,33.538,47.143,35,45.098,35H31.77c-2.086,0-3.9-1.482-4.234-3.419c-0.042-0.248-0.062-0.474-0.062-0.722l0,0
			c0-0.041,0-0.082,0-0.123c0-0.021,0-0.021,0-0.043c0.021-0.328,0.062-0.885,0.146-1.461c-0.02,0-0.02,0-0.041,0h-9.324v1.399
			c0,0.247-0.125,0.453-0.354,0.577l-6.612,3.48c-0.104,0.041-0.209,0.084-0.313,0.084s-0.208-0.021-0.292-0.062l-6.738-3.318
			c-0.229-0.102-0.354-0.328-0.354-0.576v-7.643c0-0.062,0-0.123,0.021-0.165c0-0.021,0.021-0.021,0.021-0.041
			c0.021-0.041,0.021-0.082,0.062-0.124c0-0.02,0.021-0.039,0.042-0.062c0.021-0.021,0.042-0.062,0.062-0.083
			c0.021-0.02,0.042-0.02,0.062-0.04c0.019-0.019,0.04-0.039,0.06-0.039h0.021c0,0,0,0,0.021-0.021l6.404-3.316V14.4h-6.07
			c-2.086,0-3.9-1.483-4.255-3.42C0.021,10.732,0,10.485,0,10.259l0,0c0-0.041,0-0.082,0-0.124c0-0.02,0-0.041,0-0.041
			c0.021-0.845,0.271-3.028,0.73-3.853c0.709-1.318,1.794-2.183,2.941-2.389C3.859,3.234,4.13,2.678,4.484,2.163
			C5.382,0.803,6.738,0,8.093,0c1.126,0,2.19,0.453,2.983,1.236c0.834-0.597,1.856-0.906,2.899-0.906
			c2.232,0,4.172,1.463,4.798,3.523c2.107,0.226,3.755,1.978,3.755,4.12c0,0.062,0,0.103-0.021,0.165l-0.751,2.905
			c-0.375,1.916-2.086,3.378-4.13,3.378H11.64V14.4z M17.459,4.841l0.104-0.391c-0.375-1.648-1.877-2.843-3.608-2.843
			c-0.897,0-1.731,0.309-2.399,0.886L11.41,2.946c0.584-0.227,1.21-0.35,1.856-0.35C14.998,2.596,16.562,3.481,17.459,4.841z
			 M9.971,3.172l0.271-0.906C9.7,1.648,8.907,1.298,8.073,1.298s-1.69,0.495-2.336,1.339c0.5-0.206,1.064-0.329,1.648-0.329
			C8.344,2.287,9.241,2.616,9.971,3.172z M3.191,6.221c0.021-0.309,0.062-0.618,0.167-0.906C2.837,5.583,2.315,6.077,1.94,6.757
			C2.336,6.51,2.753,6.324,3.191,6.221z M44.952,25.482l0.104-0.393c-0.377-1.646-1.877-2.842-3.609-2.842
			c-0.896,0-1.73,0.309-2.42,0.887l-0.146,0.452c0.584-0.228,1.21-0.351,1.855-0.351C42.49,23.217,44.034,24.104,44.952,25.482z
			 M37.463,23.814l0.271-0.907c-0.543-0.617-1.334-0.968-2.17-0.968c-0.834,0-1.689,0.494-2.336,1.318
			c0.5-0.206,1.063-0.33,1.647-0.33C35.814,22.907,36.732,23.236,37.463,23.814z M30.684,26.843
			c0.021-0.309,0.062-0.616,0.146-0.905c-0.521,0.268-1.021,0.781-1.418,1.441C29.809,27.131,30.225,26.966,30.684,26.843z"/>
		<path fill="#FF9510" d="M9.971,3.172c-0.73-0.556-1.627-0.886-2.586-0.886c-0.584,0-1.147,0.124-1.648,0.33
			c0.646-0.845,1.502-1.339,2.336-1.339s1.648,0.371,2.19,0.989L9.971,3.172z"/>
	</g>
</g>
</svg>
