<?xml version="1.0" encoding="utf-8"?>
<!-- Generator: Adobe Illustrator 16.0.0, SVG Export Plug-In . SVG Version: 6.00 Build 0)  -->
<!DOCTYPE svg PUBLIC "-//W3C//DTD SVG 1.1//EN" "http://www.w3.org/Graphics/SVG/1.1/DTD/svg11.dtd">
<svg version="1.1" id="Layer_1" xmlns="http://www.w3.org/2000/svg" xmlns:xlink="http://www.w3.org/1999/xlink" x="0px" y="0px"
	 width="50px" height="38px" viewBox="0 6 50 38" enable-background="new 0 6 50 38" xml:space="preserve">
<g>
	<g id="XMLID_15_">
		<g>
			<path fill="#221F1F" d="M24.609,41.639l7.851-4.209l-7.851-4.18V41.639z M39.665,18.784l0.836-3.121
				c-0.891-4.343-4.722-7.492-9.146-7.492c-2.32,0-4.533,0.869-6.26,2.416l-0.944,3.122c1.672-1.031,3.588-1.574,5.585-1.574
				C34.161,12.107,38.046,14.821,39.665,18.784z M40.718,20.359c3.508,0.353,6.395,2.769,7.501,6.026l0.675-2.606
				c-0.055-3.963-3.185-7.193-7.096-7.383L40.718,20.359z M2.078,23.479c1.322-1.574,3.157-2.66,5.289-3.04c0-0.054,0-0.109,0-0.163
				c0-0.787,0.108-1.547,0.297-2.28c0.054-0.543,0.135-1.059,0.243-1.574c-1.916,0.407-3.777,2.008-5.073,4.424
				C2.537,21.39,2.294,22.367,2.078,23.479z M10.092,13.871c1.592-1.547,3.751-2.497,6.125-2.497c2.401,0,4.695,1.004,6.368,2.715
				l1.133-3.773c-1.403-1.819-3.588-2.904-5.882-2.904c-2.374,0-4.803,1.52-6.503,4.071C10.847,12.215,10.416,13.002,10.092,13.871z
				 M8.878,36.508h14.355v-5.619l12.278,6.57L23.206,44v-6.08H8.878C3.994,37.92,0,34.039,0,29.125c0-0.325,0.027-0.516,0.054-0.841
				H0.027c0.135-1.927,0.674-6.433,1.538-8.061c1.619-3.041,4.101-5.022,6.665-5.266c0.432-1.574,1.08-3.013,1.916-4.234
				C12.115,7.764,14.976,6,17.809,6c2.617,0,5.073,1.167,6.746,3.148c1.916-1.574,4.263-2.416,6.746-2.416
				c4.965,0,9.2,3.42,10.361,8.224C46.384,15.147,50,19.083,50,23.86v0.082l-1.809,6.895c-0.755,4.152-4.533,7.328-8.77,7.328
				v-1.412c4.236,0,7.637-3.365,7.637-7.49c0-4.126-3.13-7.519-7.259-7.519h-0.054c-0.054,0-0.081,0-0.108,0h-0.593l-0.108-0.597
				c-0.836-4.424-4.695-7.628-9.174-7.628c-2.375,0-4.642,0.896-6.396,2.552l-0.593,0.57l-0.458-0.678
				c-1.403-1.981-3.67-3.176-6.099-3.176c-3.427,0-6.341,2.361-7.177,5.564c0,0.027,0,0.027,0,0.055l0,0
				c-0.162,0.597-0.243,1.221-0.243,1.873c0,0.218,0,0.435,0.027,0.706l0.054,0.679l-0.702,0.027
				c-3.859,0.38-6.773,3.529-6.773,7.437C1.403,33.25,4.749,36.508,8.878,36.508z"/>
			<polygon fill="#FF9510" points="32.487,37.43 24.609,41.639 24.609,33.25 			"/>
		</g>
	</g>
</g>
</svg>
