<?xml version="1.0" encoding="utf-8"?>
<!DOCTYPE svg PUBLIC "-//W3C//DTD SVG 1.1//EN" "http://www.w3.org/Graphics/SVG/1.1/DTD/svg11.dtd">
<svg version="1.1" id="Layer_1" xmlns="http://www.w3.org/2000/svg" xmlns:xlink="http://www.w3.org/1999/xlink" x="0px" y="0px"
	 width="40px" height="40px" viewBox="0 0 40 40" enable-background="new 0 0 40 40" xml:space="preserve">
<path fill="#211F1F" d="M20,0C8.942,0,0,8.942,0,20s8.942,20,20,20c11.059,0,20-8.942,20-20S31.059,0,20,0z M25.809,26.192
	c-1.674,0-2.867-0.98-3.117-2.135c-1.037,1.192-2.076,1.923-3.787,1.923c-1.943,0-3.827-0.98-3.827-3.442
	c0-2.846,2.5-3.634,6.058-3.634h1.135v-0.52c0-1.558-0.865-2.288-2.692-2.288c-1.885,0-2.442,0.788-2.962,0.788
	c-0.48,0-0.808-0.827-0.808-1.25c0-1,2.193-1.788,4.135-1.788c2.653,0,4.692,1.365,4.692,3.98v5.135c0.154,1,0.674,1.48,1.348,1.48
	c1.615,0,1.865-2.77,1.865-4.481c0-5.385-2.404-8.461-7.713-8.461c-6.096,0-7.923,4.134-7.923,8.769
	c0,4.328,1.635,8.231,6.981,8.231c2.558,0,3.538-0.808,4.173-0.808c0.52,0,0.826,0.596,0.826,0.941c0,1.116-3.268,1.828-5.364,1.828
	c-4.558,0-8.789-3.212-8.789-10.154c0-6,3.115-10.769,10.115-10.769c6.25,0,9.827,3.692,9.827,10
	C29.98,23.077,28.789,26.192,25.809,26.192z M17.692,22.5c0,1.134,0.731,1.653,1.731,1.653c1.653,0,2.942-1.288,2.942-2.48v-1.25
	h-0.924C19.154,20.423,17.692,20.884,17.692,22.5z"/>
</svg>
