<?xml version="1.0" encoding="utf-8"?>
<!DOCTYPE svg PUBLIC "-//W3C//DTD SVG 1.1//EN" "http://www.w3.org/Graphics/SVG/1.1/DTD/svg11.dtd">
<svg version="1.1" id="Layer_1" xmlns="http://www.w3.org/2000/svg" xmlns:xlink="http://www.w3.org/1999/xlink" x="0px" y="0px"
	 width="40px" height="40px" viewBox="0 0 40 40" enable-background="new 0 0 40 40" xml:space="preserve">
<path fill="#211F1F" d="M20,0C8.942,0,0,8.942,0,20s8.942,20,20,20c11.059,0,20-8.942,20-20S31.059,0,20,0z M23.52,30.827
	c-0.559,0.115-0.75-0.23-0.75-0.539V27.25c0-1.038-0.348-1.731-0.75-2.058c2.48-0.289,5.076-1.23,5.076-5.5
	c0-1.212-0.422-2.212-1.133-2.981c0.115-0.289,0.48-1.423-0.117-2.942c0,0-0.943-0.308-3.059,1.135
	c-0.885-0.25-1.845-0.365-2.787-0.365c-0.942,0-1.904,0.115-2.789,0.365c-2.115-1.442-3.057-1.135-3.057-1.135
	c-0.596,1.52-0.211,2.654-0.115,2.942c-0.692,0.769-1.135,1.769-1.135,2.981c0,4.27,2.596,5.211,5.058,5.5
	c-0.308,0.288-0.597,0.77-0.692,1.48c-0.635,0.289-2.25,0.789-3.25-0.923c0,0-0.577-1.058-1.693-1.135c0,0-1.096-0.019-0.077,0.673
	c0,0,0.731,0.346,1.231,1.615c0,0,0.654,2.174,3.75,1.5c0,0.924,0.019,1.635,0.019,1.885c0,0.309-0.211,0.654-0.769,0.539
	c-4.423-1.462-7.596-5.635-7.596-10.558c0-6.135,4.981-11.115,11.116-11.115c6.154,0,11.135,4.98,11.135,11.115
	C31.135,25.192,27.943,29.365,23.52,30.827z"/>
</svg>
