<?xml version="1.0" encoding="utf-8"?>
<!DOCTYPE svg PUBLIC "-//W3C//DTD SVG 1.1//EN" "http://www.w3.org/Graphics/SVG/1.1/DTD/svg11.dtd">
<svg version="1.1" id="Layer_1" xmlns="http://www.w3.org/2000/svg" xmlns:xlink="http://www.w3.org/1999/xlink" x="0px" y="0px"
	 width="40px" height="40px" viewBox="0 0 40 40" enable-background="new 0 0 40 40" xml:space="preserve">
<path fill="#211F1F" d="M20,0C8.942,0,0,8.942,0,20s8.942,20,20,20c11.057,0,20-8.942,20-20S31.057,0,20,0z M28.5,15.634v0.577
	c0,5.789-4.404,12.461-12.462,12.461c-2.461,0-4.769-0.73-6.711-1.961c0.346,0.038,0.692,0.057,1.039,0.057
	c2.058,0,3.942-0.691,5.442-1.865c-1.904-0.038-3.52-1.307-4.077-3.057c0.269,0.057,0.539,0.076,0.808,0.076
	c0.404,0,0.788-0.058,1.154-0.154c-2-0.403-3.5-2.172-3.5-4.288v-0.058c0.596,0.327,1.27,0.539,1.981,0.558
	C11,17.192,10.23,15.846,10.23,14.327c0-0.808,0.211-1.558,0.577-2.192c2.174,2.635,5.404,4.385,9.039,4.558
	c-0.077-0.308-0.115-0.654-0.115-0.981c0-2.423,1.96-4.385,4.384-4.385c1.25,0,2.404,0.52,3.193,1.385
	c1-0.192,1.941-0.558,2.787-1.058c-0.326,1.019-1.02,1.865-1.922,2.404c0.885-0.096,1.73-0.327,2.5-0.673
	C30.096,14.25,29.346,15.019,28.5,15.634z"/>
</svg>
